<svg version="1.1" xmlns="http://www.w3.org/2000/svg" xmlns:xlink="http://www.w3.org/1999/xlink" width="48" height="48"><defs><linearGradient x1="11.77524" y1="11.68966" x2="53.19533" y2="53.2809" gradientUnits="userSpaceOnUse" id="color-1"><stop offset="0" stop-color="#000000" stop-opacity="0.17"></stop><stop offset="1" stop-color="#000000" stop-opacity="0"></stop></linearGradient><filter id="dropshadow-base"><feColorMatrix type="matrix" values="0 0 0 0 0  0 0 0 0 0  0 0 0 0 0  0 0 0 .8 0"></feColorMatrix> <feOffset dx="0" dy="1"></feOffset> <feGaussianBlur stdDeviation="1"></feGaussianBlur> <feComposite in="SourceGraphic"></feComposite></filter><filter id="dropshadow-banner" x="-10%" y="-10%" width="120%" height="130%"><feColorMatrix type="matrix" values="0 0 0 0 0  0 0 0 0 0  0 0 0 0 0  0 0 0 .4 0"></feColorMatrix> <feOffset dx="0" dy="1"></feOffset> <feGaussianBlur stdDeviation="0.5"></feGaussianBlur> <feComposite in="SourceGraphic"></feComposite></filter></defs><g fill="none" fill-rule="nonzero" stroke="none" stroke-width="none" stroke-linecap="butt" stroke-linejoin="miter" stroke-miterlimit="10" stroke-dasharray="" stroke-dashoffset="0" font-family="none" font-weight="none" font-size="none" text-anchor="none" style="mix-blend-mode: normal"><path d="M3,24c0,-11.59798 9.40202,-21 21,-21c11.59798,0 21,9.40202 21,21c0,11.59798 -9.40202,21 -21,21c-11.59798,0 -21,-9.40202 -21,-21z" id="base 1 1" fill="#ffffff" stroke-width="1" filter="url(#dropshadow-base)"></path><path d="M29.0366,13.56616l15.37805,15.37805c0.29574,-1.22548 0.484,-2.49287 0.55426,-3.79165l-8.74414,-8.74414l-5.61728,-4.71265zM11.77524,16.40231l1.57088,1.87039l1.27527,1.27527c-1.03001,1.67547 -1.62368,3.64837 -1.62368,5.76008c0,3.04014 1.23044,5.79257 3.22191,7.78404l11.56736,11.56736c7.84175,-1.42812 14.16444,-7.21125 16.37071,-14.75202l-12.37741,-12.37741c-1.99199,-1.99199 -4.74471,-3.22426 -7.78638,-3.22426c-1.20112,0 -2.35671,0.19216 -3.4379,0.54737l-3.16347,-3.16347z" fill="url(#color-1)" stroke-width="1"></path><path d="M36.22476,16.40842l-5.61728,-4.71265l-1.57088,1.87039l5.61728,4.71265zM18.9634,13.56005l-1.57088,-1.87039l-5.61728,4.71265l1.57088,1.87039zM24.61124,19.19567h-1.83371v7.33486l5.80065,3.49017l0.92297,-1.50976l-4.88991,-2.89727zM23.99389,14.30576c-6.08182,0 -10.99618,4.92658 -10.99618,11.00229c0,6.07571 4.91436,11.00229 10.99618,11.00229c6.08182,0 11.0084,-4.92658 11.0084,-11.00229c0,-6.07571 -4.92658,-11.00229 -11.0084,-11.00229zM24,33.86538c-4.72487,0 -8.55734,-3.83246 -8.55734,-8.55734c0,-4.72487 3.83246,-8.55734 8.55734,-8.55734c4.72487,0 8.55734,3.83246 8.55734,8.55734c0,4.72487 -3.82635,8.55734 -8.55734,8.55734z" fill="#4a148c" stroke-width="0"></path></g></svg>