<?xml version="1.0" standalone="no"?>
<!DOCTYPE svg PUBLIC "-//W3C//DTD SVG 20010904//EN"
 "http://www.w3.org/TR/2001/REC-SVG-20010904/DTD/svg10.dtd">
<svg version="1.0" xmlns="http://www.w3.org/2000/svg"
 width="700.000000pt" height="700.000000pt" viewBox="0 0 700.000000 700.000000"
 preserveAspectRatio="xMidYMid meet">
<metadata>
Created by potrace 1.11, written by Peter Selinger 2001-2013
</metadata>
<g transform="translate(0.000000,700.000000) scale(0.100000,-0.100000)"
fill="#000000" stroke="none">
<path d="M3356 6563 c-1 -1 -35 -5 -76 -8 -108 -8 -258 -27 -310 -39 -14 -3
-38 -7 -55 -10 -16 -2 -52 -9 -80 -16 -27 -6 -57 -13 -65 -15 -35 -7 -110 -28
-182 -52 -43 -13 -83 -21 -89 -17 -7 4 -9 3 -6 -3 4 -6 -12 -16 -36 -23 -23
-6 -60 -21 -81 -31 -30 -14 -43 -16 -53 -7 -10 8 -12 8 -8 -3 3 -9 -10 -20
-42 -33 -77 -31 -218 -101 -252 -125 -20 -14 -38 -20 -51 -16 -14 4 -18 2 -15
-7 3 -8 -14 -24 -43 -40 -26 -15 -63 -38 -83 -50 -19 -13 -51 -33 -70 -45 -19
-12 -41 -28 -49 -35 -8 -8 -31 -25 -50 -38 -19 -13 -37 -27 -40 -30 -3 -3 -30
-25 -60 -50 -30 -25 -61 -51 -68 -58 -8 -6 -18 -10 -23 -6 -5 3 -9 2 -8 -3 4
-21 -2 -24 -18 -12 -16 12 -17 12 -5 -2 17 -22 -7 -45 -28 -26 -12 10 -12 9
-2 -4 9 -13 4 -22 -28 -51 -22 -19 -41 -34 -43 -32 -1 2 -11 -10 -22 -27 -11
-16 -26 -29 -33 -29 -6 0 -11 -6 -10 -12 2 -7 -3 -12 -10 -10 -8 1 -11 -2 -8
-7 4 -5 0 -13 -7 -18 -7 -4 -30 -29 -52 -55 -21 -26 -43 -44 -48 -41 -6 3 -7
1 -4 -4 4 -6 -3 -21 -16 -35 -12 -13 -30 -36 -40 -51 -10 -15 -21 -25 -26 -23
-4 3 -8 0 -8 -7 0 -11 -68 -114 -83 -127 -4 -3 -15 -19 -25 -37 -10 -18 -23
-29 -29 -26 -6 3 -8 3 -4 -2 12 -13 -34 -86 -50 -80 -12 4 -13 3 -2 -10 9 -11
9 -15 1 -15 -7 0 -9 -4 -6 -10 3 -5 1 -10 -5 -10 -6 0 -9 -4 -5 -9 3 -6 -2
-14 -11 -19 -9 -5 -17 -13 -17 -18 -1 -5 -5 -8 -9 -7 -4 2 -5 -4 -2 -12 4 -8
1 -15 -5 -15 -6 0 -10 -3 -10 -7 3 -21 -2 -33 -13 -27 -7 4 -8 3 -4 -4 7 -12
-20 -72 -38 -84 -6 -4 -7 -8 -2 -8 4 0 2 -10 -6 -22 -8 -13 -21 -40 -27 -61
-8 -22 -17 -34 -23 -31 -7 4 -8 2 -4 -4 4 -7 1 -26 -7 -44 -19 -43 -30 -71
-31 -81 -1 -4 -5 -11 -11 -15 -5 -4 -11 -20 -12 -37 -1 -16 -7 -31 -12 -33 -5
-2 -8 -9 -5 -16 3 -8 -2 -20 -10 -29 -8 -8 -13 -17 -10 -20 8 -8 -6 -48 -14
-43 -4 2 -8 -14 -9 -36 0 -23 -5 -43 -10 -47 -4 -3 -8 -12 -9 -18 -1 -7 -2
-22 -2 -34 -2 -14 -7 -19 -17 -16 -8 4 -17 2 -20 -4 -4 -5 -3 -9 2 -8 33 6 34
-4 6 -81 -3 -8 -7 -30 -9 -49 -2 -19 -9 -38 -16 -43 -8 -4 -8 -8 -2 -8 6 0 9
-13 6 -30 -2 -17 -7 -30 -11 -30 -4 0 -5 -14 -3 -31 4 -25 2 -30 -9 -24 -12 8
-12 6 0 -8 7 -9 9 -17 4 -17 -5 0 -9 -15 -10 -32 -1 -78 -4 -99 -12 -93 -5 3
-13 0 -17 -6 -4 -7 -3 -9 4 -5 6 3 14 1 18 -5 3 -6 0 -15 -7 -20 -8 -5 -9 -9
-3 -9 6 0 11 -7 11 -15 0 -8 -4 -15 -9 -15 -4 0 -8 -5 -8 -11 0 -5 4 -7 10 -4
13 8 0 -28 -14 -37 -8 -5 -8 -8 0 -8 16 0 12 -123 -4 -143 -10 -11 -9 -17 1
-26 10 -8 14 -35 13 -92 -1 -44 2 -83 7 -86 4 -3 3 -11 -4 -19 -6 -8 -7 -14
-2 -14 5 0 9 -22 9 -50 -1 -27 2 -50 6 -50 5 0 8 -5 8 -11 0 -5 -5 -7 -12 -3
-6 4 -4 -3 5 -16 12 -18 14 -28 5 -44 -8 -15 -8 -21 1 -24 6 -2 11 -11 11 -19
0 -12 -3 -13 -13 -4 -10 8 -14 7 -14 -4 0 -8 4 -12 9 -9 10 6 24 -29 32 -80 4
-27 3 -35 -6 -30 -6 4 -8 3 -5 -3 4 -6 1 -13 -7 -16 -17 -7 -15 -53 3 -49 8 2
11 -3 8 -13 -4 -8 -2 -15 3 -15 5 0 9 11 8 24 -2 19 -5 22 -15 15 -9 -8 -11
-5 -10 10 1 14 6 20 15 16 7 -2 10 0 7 5 -3 6 -2 10 4 10 5 0 10 -8 10 -17 0
-10 2 -34 6 -53 4 -19 7 -43 7 -52 -1 -10 4 -18 10 -18 6 0 8 -9 5 -19 -3 -11
2 -29 10 -40 10 -15 11 -21 2 -21 -8 0 -8 -4 -1 -12 5 -7 12 -24 14 -38 1 -14
10 -31 18 -38 13 -12 13 -13 -2 -8 -10 3 -24 9 -32 12 -7 3 -16 -3 -20 -13 -6
-14 -4 -15 5 -6 14 14 42 6 32 -10 -3 -5 -1 -7 4 -4 6 4 16 1 22 -7 9 -10 8
-15 -4 -20 -9 -3 -13 -2 -10 4 3 6 1 10 -5 10 -7 0 -10 -6 -7 -12 2 -7 12 -13
23 -13 10 0 20 -6 20 -13 1 -6 3 -15 4 -19 2 -5 4 -12 5 -18 3 -16 24 -69 36
-89 8 -14 7 -22 -5 -34 -10 -10 -16 -12 -16 -5 0 7 5 15 12 19 8 5 6 11 -6 20
-10 7 -17 15 -17 18 3 24 0 28 -14 16 -11 -9 -15 -9 -15 -1 0 6 7 14 15 17 8
4 12 11 8 18 -8 11 -13 32 -15 53 -1 7 -5 10 -10 7 -5 -3 -6 -10 -3 -15 14
-22 13 -53 -3 -77 -9 -14 -12 -23 -7 -20 6 3 19 0 30 -8 18 -14 18 -15 -7 -18
-7 0 -13 -8 -14 -16 0 -9 1 -10 3 -2 3 7 8 10 13 7 5 -3 11 -1 15 5 3 5 10 10
16 10 5 0 4 -9 -3 -20 -10 -16 -9 -23 10 -43 22 -24 32 -51 10 -29 -7 7 -17
12 -22 12 -6 0 -3 -7 7 -15 22 -16 53 -9 38 9 -5 6 -11 15 -13 21 -1 5 -6 9
-10 8 -11 -4 -10 15 2 22 5 3 18 -13 30 -37 24 -50 24 -52 5 -45 -8 4 -17 2
-20 -3 -3 -5 -12 -7 -20 -3 -8 3 -15 1 -16 -3 0 -5 -2 -17 -4 -26 -2 -12 2
-15 13 -11 11 5 13 3 7 -8 -7 -12 -6 -12 7 -1 16 13 52 6 43 -8 -3 -5 -1 -11
5 -15 5 -3 10 -12 10 -18 -1 -7 -10 -1 -21 12 -11 13 -22 21 -26 18 -3 -4 5
-16 18 -27 16 -15 20 -23 12 -26 -15 -7 -17 -24 -4 -24 5 0 12 9 16 19 4 13
12 18 23 15 14 -5 15 -4 2 5 -8 6 -10 11 -4 11 21 0 39 -29 26 -42 -9 -9 -12
-9 -12 0 0 7 -5 12 -11 12 -5 0 -7 -4 -4 -10 3 -6 1 -10 -6 -10 -8 0 -6 -6 4
-18 23 -25 21 -41 -5 -69 -31 -33 -17 -28 23 8 19 18 29 29 23 26 -7 -4 -11 5
-11 23 0 17 4 30 8 30 9 0 23 -32 20 -49 -2 -8 2 -10 11 -5 7 4 10 4 6 -1 -4
-4 3 -22 15 -39 12 -17 23 -34 23 -38 1 -5 2 -13 3 -19 0 -5 5 -7 11 -4 6 3 7
-1 4 -9 -3 -9 -1 -16 5 -16 7 0 11 -8 9 -17 -2 -12 2 -17 12 -15 8 2 12 1 8
-3 -3 -4 2 -16 12 -28 11 -12 19 -26 19 -31 0 -5 5 -13 13 -17 10 -7 10 -9 1
-9 -7 0 -13 -4 -13 -10 0 -5 3 -9 8 -9 19 3 33 -2 27 -10 -3 -5 -1 -12 5 -16
6 -4 7 -11 4 -17 -5 -8 -1 -9 10 -5 9 4 15 3 12 -2 -3 -5 1 -11 9 -15 9 -3 12
-12 8 -22 -4 -11 -2 -15 4 -11 6 4 18 -4 27 -18 9 -14 13 -25 9 -25 -5 0 -1
-5 7 -10 8 -5 15 -15 15 -22 1 -7 7 -12 15 -10 8 2 12 0 8 -4 -4 -4 0 -13 10
-20 9 -7 18 -17 18 -23 1 -6 2 -15 3 -21 0 -5 4 -9 9 -7 8 2 12 -6 12 -30 0
-18 -15 -8 -15 10 -1 7 -6 11 -13 10 -6 -2 -9 3 -6 11 3 8 1 17 -5 21 -7 3 -8
0 -5 -9 3 -9 2 -16 -4 -16 -5 0 -9 8 -9 17 0 35 -3 44 -12 38 -5 -3 -12 -1
-16 5 -11 18 -26 0 -15 -19 9 -18 4 -31 -11 -31 -5 0 -5 8 -2 17 6 15 5 16 -9
3 -14 -13 -14 -16 -1 -23 8 -5 20 -4 29 3 9 8 14 9 14 2 0 -6 -5 -14 -10 -17
-6 -3 -10 -12 -10 -18 0 -7 5 -4 11 6 5 9 15 17 21 17 7 0 7 -4 0 -13 -7 -8
-6 -18 4 -31 11 -16 16 -17 29 -6 8 7 18 10 21 8 3 -3 -6 -15 -20 -26 -21 -16
-23 -21 -10 -26 8 -3 12 -10 9 -16 -3 -5 -1 -10 4 -10 15 0 14 13 -1 29 -11
11 -9 12 9 7 16 -5 25 -2 33 13 9 18 8 20 -7 15 -17 -5 -17 -5 -1 9 10 8 15
17 11 21 -4 4 1 4 11 0 14 -5 15 -9 4 -15 -12 -8 -11 -10 11 -13 13 -2 26 -16
26 -29 0 -7 7 -12 15 -12 8 0 15 -6 15 -13 0 -8 10 -19 23 -26 l23 -12 -26
-12 c-14 -7 -24 -8 -21 -3 6 10 -12 28 -33 33 -7 2 -15 -5 -16 -14 -3 -17 7
-23 29 -19 5 1 6 -5 2 -14 -4 -10 -2 -14 5 -9 7 4 10 1 7 -7 -3 -8 -12 -13
-21 -11 -21 3 -28 -10 -15 -28 8 -12 9 -11 4 3 -5 15 -2 17 14 12 11 -4 20 -2
20 3 0 5 7 9 15 9 22 0 18 -15 -6 -22 -11 -4 -18 -9 -16 -12 3 -2 15 0 26 7
12 6 21 7 21 1 0 -5 -6 -11 -14 -14 -7 -3 -14 -18 -13 -32 0 -17 2 -23 7 -14
5 6 6 19 3 28 -3 12 -1 11 11 -3 13 -16 18 -17 31 -6 9 8 15 8 15 2 0 -6 -8
-16 -17 -21 -15 -9 -15 -10 -2 -11 17 0 55 -32 61 -52 4 -11 8 -10 21 1 11 9
17 9 17 2 0 -6 -9 -16 -20 -23 -11 -7 -20 -19 -20 -26 0 -7 11 0 25 15 l25 28
-3 -25 c-1 -19 3 -25 16 -24 13 2 16 -3 12 -17 -4 -11 -2 -19 5 -19 6 0 8 5 5
10 -3 6 3 10 14 10 26 0 26 -5 1 -30 -11 -11 -20 -26 -20 -32 1 -7 7 -2 15 12
8 14 15 21 16 15 1 -5 2 -14 4 -20 1 -5 3 -14 3 -18 1 -4 11 -3 22 3 14 8 20
8 20 0 0 -6 -11 -15 -25 -20 -14 -5 -25 -12 -25 -14 0 -7 31 4 47 16 7 6 22 2
40 -9 31 -20 41 -43 19 -43 -8 0 -17 -7 -20 -16 -5 -14 -4 -15 9 -4 8 7 32 14
51 16 l36 3 -21 -23 c-23 -25 -26 -36 -10 -36 5 0 8 3 6 8 -3 4 1 12 8 19 9 9
16 3 29 -24 15 -31 15 -35 2 -30 -9 4 -15 3 -15 -1 3 -19 -2 -25 -11 -12 -7
12 -9 10 -7 -7 1 -15 5 -19 13 -13 6 6 15 6 19 2 5 -4 6 -2 4 3 -6 12 47 65
56 57 3 -3 -7 -19 -22 -36 l-28 -31 27 23 26 24 7 -22 c5 -15 2 -26 -6 -32
-11 -8 -11 -9 1 -5 8 2 15 13 14 25 0 12 4 18 13 15 7 -3 10 -10 6 -16 -3 -6
-1 -7 6 -3 13 8 41 -10 41 -26 0 -6 -6 -5 -14 2 -9 7 -21 8 -30 3 -13 -7 -12
-11 7 -22 20 -13 21 -13 8 2 -7 10 -9 17 -3 17 5 0 22 -16 36 -35 23 -29 24
-35 10 -35 -10 0 -15 -3 -11 -6 3 -4 14 -4 23 0 15 6 15 8 -1 26 -10 11 -16
23 -13 26 3 3 16 -8 28 -23 12 -15 21 -21 20 -13 -4 27 0 41 10 35 5 -3 8 -11
6 -18 -1 -7 -1 -9 1 -4 8 14 19 7 20 -13 1 -11 -2 -18 -6 -16 -11 7 -36 -12
-28 -21 5 -4 12 -2 16 5 6 10 11 10 21 -3 7 -8 18 -15 25 -15 19 0 85 -56 77
-66 -4 -5 1 -2 10 5 15 11 19 11 24 -3 3 -9 11 -16 16 -16 6 0 5 6 -2 15 -23
28 5 15 33 -15 16 -17 35 -30 42 -30 7 0 16 -6 19 -12 3 -7 4 -4 3 6 -1 10 3
21 9 23 6 2 10 -11 10 -34 -1 -27 3 -37 13 -35 10 2 12 -4 7 -25 -5 -23 -4
-25 5 -10 12 21 4 51 -11 42 -5 -3 -10 3 -10 15 0 20 1 20 35 -6 33 -25 41
-23 36 9 -1 9 13 9 22 0 4 -3 2 -12 -3 -18 -8 -9 -6 -14 4 -18 11 -4 13 -1 9
11 -5 13 -3 14 7 5 7 -6 19 -9 26 -6 27 10 14 -7 -17 -22 -30 -16 -30 -17 -12
-37 10 -11 17 -23 16 -27 -1 -3 0 -8 2 -9 11 -11 -3 29 -15 44 -14 16 -13 17
3 11 10 -4 16 -3 13 2 -3 5 1 11 9 15 8 3 19 -3 24 -12 7 -11 11 -12 11 -4 0
7 5 10 10 7 8 -5 7 -12 -2 -23 -8 -10 -9 -13 -1 -9 6 4 16 0 21 -9 8 -15 10
-14 16 2 5 13 1 23 -13 33 -25 16 -27 28 -6 28 8 0 15 -3 15 -6 0 -14 58 -69
66 -63 4 4 4 -1 1 -11 -4 -11 -3 -16 3 -12 6 3 10 1 10 -6 0 -7 3 -10 6 -7 3
4 1 15 -5 26 -8 15 -7 23 5 33 13 11 15 10 14 -2 -5 -29 0 -38 18 -33 16 5 16
5 0 -9 -24 -20 -23 -30 2 -15 11 7 18 18 16 25 -3 7 1 10 10 6 7 -3 14 -8 14
-12 -1 -11 -27 -41 -32 -36 -2 3 -5 -2 -5 -12 0 -13 4 -11 19 7 l18 22 9 -23
10 -24 0 23 c1 12 -2 22 -6 22 -5 0 -9 11 -9 25 -1 14 1 23 5 21 4 -3 13 -1
21 4 12 7 12 12 2 22 -9 9 -12 8 -12 -7 0 -15 -2 -17 -9 -6 -6 9 -10 10 -12 2
-2 -6 -9 -3 -16 8 -10 16 -9 23 6 40 10 11 21 17 25 13 4 -4 13 -7 19 -7 7 0
11 -10 10 -22 -2 -19 0 -20 21 -10 14 7 22 16 19 21 -4 5 -1 6 5 2 6 -4 8 -14
5 -22 -5 -14 -3 -15 17 -4 12 7 20 7 16 2 -3 -6 0 -13 6 -15 10 -4 9 -8 -2
-17 -13 -10 -12 -11 3 -6 10 3 21 6 23 6 3 0 2 6 -2 13 -5 8 -2 8 9 -2 14 -11
20 -11 32 -1 8 7 15 8 15 4 0 -5 -9 -15 -20 -22 -11 -7 -20 -17 -20 -22 0 -6
10 -4 23 4 13 9 28 12 36 7 9 -6 10 -11 2 -15 -6 -4 -11 -1 -11 6 0 8 -5 6
-11 -5 -6 -9 -14 -15 -20 -12 -16 10 -10 -5 11 -27 22 -24 21 -32 -4 -22 -9 3
-13 11 -9 17 3 5 1 7 -4 4 -14 -9 -21 11 -17 45 2 20 -1 25 -12 21 -10 -4 -11
-10 -4 -23 13 -25 -4 -35 -21 -13 -10 12 -10 14 -1 9 6 -4 12 -2 12 3 0 6 -3
12 -7 12 -35 6 -51 4 -49 -5 2 -6 1 -8 -1 -3 -3 4 -9 7 -15 7 -6 0 -4 -7 3
-17 12 -14 12 -16 -1 -11 -8 3 -14 12 -14 21 1 9 -3 14 -9 10 -6 -4 -7 -1 -2
8 5 8 1 7 -10 -3 -15 -14 -16 -20 -6 -32 7 -8 10 -19 7 -24 -3 -5 4 -9 15 -8
11 0 24 7 29 15 14 23 42 23 35 0 -4 -11 -2 -19 5 -19 6 0 8 -6 5 -12 -4 -7 3
-2 14 11 25 28 28 6 4 -23 -18 -21 -18 -21 3 -4 25 22 41 24 24 3 -8 -9 -8
-15 -2 -15 6 0 12 5 14 12 5 13 28 2 28 -13 0 -6 -4 -8 -8 -5 -4 2 -14 1 -22
-4 -11 -7 -9 -9 9 -7 14 1 26 9 29 19 2 10 7 18 11 18 13 -1 40 -27 34 -33 -3
-4 -2 -7 4 -7 5 0 15 11 21 25 6 14 17 25 23 25 7 0 5 -10 -6 -26 -9 -14 -14
-28 -11 -32 3 -3 6 -1 6 5 0 5 6 10 13 10 6 0 21 4 32 8 20 7 20 6 1 -9 -17
-14 -18 -16 -3 -16 16 0 21 11 18 38 -1 8 10 5 35 -8 27 -16 39 -18 49 -10 11
9 14 7 12 -9 -1 -12 -5 -21 -9 -21 -4 0 -8 -5 -8 -12 0 -6 9 -3 20 7 11 10 20
13 20 7 0 -6 -4 -13 -9 -16 -5 -3 -11 -15 -14 -26 -3 -11 -1 -18 4 -14 5 3 9
11 9 19 0 8 7 18 16 23 11 6 13 11 5 16 -6 4 -11 12 -11 18 0 6 9 3 20 -7 25
-22 26 -35 3 -36 -12 0 -13 -2 -5 -6 7 -3 22 3 34 13 19 18 20 18 44 -9 13
-16 24 -25 24 -21 0 4 -7 16 -17 26 -9 10 -12 18 -7 18 16 -1 44 -27 44 -41 0
-8 6 -3 13 10 6 14 18 26 25 29 11 3 10 -2 -2 -20 -18 -27 -11 -44 11 -27 9 9
13 8 13 0 0 -6 5 -11 11 -11 8 0 8 4 2 13 -5 6 -10 22 -11 35 -1 19 2 21 13
12 8 -6 12 -17 9 -25 -7 -16 12 -29 21 -15 4 6 1 17 -5 25 -15 18 1 20 18 3 8
-8 15 -8 28 3 15 12 16 12 10 -9 -5 -14 -3 -22 4 -22 6 0 8 -5 3 -12 -4 -7 5
-5 20 5 24 15 28 16 33 2 5 -13 9 -13 26 -1 11 8 27 12 36 9 10 -5 13 -2 8 6
-5 7 -15 10 -23 6 -12 -4 -13 -2 -5 8 12 14 -2 47 -15 34 -4 -5 -1 -12 7 -17
8 -6 10 -10 4 -10 -6 0 -19 10 -28 23 -10 14 -14 16 -10 5 4 -11 1 -18 -7 -18
-7 0 -9 3 -6 6 9 10 -12 46 -24 39 -5 -4 -9 -11 -9 -16 0 -6 4 -8 9 -4 5 3 12
1 16 -4 3 -6 -4 -8 -15 -6 -11 2 -18 0 -16 -4 3 -4 -1 -8 -9 -8 -8 0 -12 4 -9
9 8 12 -19 5 -28 -7 -5 -6 -8 -5 -8 3 0 7 -4 11 -9 7 -5 -3 -12 -1 -16 5 -4 6
-11 8 -16 5 -5 -4 -9 -1 -9 5 0 6 -5 8 -11 4 -8 -5 -7 -9 1 -14 8 -5 3 -7 -13
-7 -14 1 -23 7 -20 12 3 6 0 4 -8 -3 -12 -11 -12 -14 0 -21 7 -5 9 -11 4 -14
-5 -3 -13 -3 -18 1 -14 10 -17 32 -4 32 5 0 7 5 4 11 -5 6 -12 4 -22 -8 -9
-11 -12 -12 -8 -3 5 11 3 10 -7 -2 -13 -15 -15 -15 -25 1 -9 14 -9 21 0 30 8
8 8 11 -1 11 -7 0 -12 -6 -12 -12 0 -9 -3 -9 -9 1 -5 8 -16 11 -24 8 -8 -3
-20 0 -26 6 -10 9 -12 9 -9 -2 2 -7 -5 -15 -15 -16 -9 -2 -14 1 -11 6 7 12
-19 7 -27 -5 -4 -5 -10 1 -14 13 -4 13 -11 18 -18 14 -20 -12 -38 -12 -30 0 4
7 -1 6 -11 -2 -15 -12 -17 -12 -14 0 2 9 -4 13 -16 11 -11 -2 -16 1 -13 10 2
7 10 12 16 11 13 -4 15 14 1 22 -5 3 -16 -8 -25 -25 -8 -16 -21 -30 -28 -29
-9 0 -9 2 1 6 21 8 13 19 -15 19 -16 0 -31 -4 -35 -10 -4 -6 -6 -1 -6 11 1 12
7 19 14 16 7 -2 17 5 24 16 7 14 7 21 0 21 -5 0 -10 5 -10 11 0 8 4 8 13 2 6
-6 22 -9 34 -8 12 1 19 -3 16 -8 -3 -5 4 -6 18 -2 17 4 20 3 10 -3 -8 -6 -10
-12 -3 -16 6 -4 15 2 21 11 6 10 11 13 11 6 0 -6 -4 -15 -10 -18 -5 -3 -10
-11 -10 -17 0 -6 11 -1 26 13 21 19 24 20 18 5 -5 -14 -4 -17 4 -12 7 4 12 2
12 -4 0 -6 5 -8 10 -5 8 5 7 12 -2 23 -11 15 -11 15 3 5 9 -7 18 -10 21 -7 3
2 16 -8 29 -23 29 -33 62 -44 52 -16 -7 17 -6 17 11 1 9 -10 23 -18 29 -18 7
0 3 8 -8 17 -14 11 -15 14 -4 10 9 -3 23 0 30 6 11 10 11 9 0 -5 -15 -20 -2
-25 17 -6 8 8 16 5 31 -13 11 -13 20 -19 21 -14 0 6 -5 16 -12 23 -8 8 -9 12
-1 12 6 0 14 -6 16 -12 4 -10 6 -10 6 -1 1 7 13 1 27 -13 24 -25 26 -25 44 -9
11 10 17 23 13 29 -4 6 1 5 10 -2 9 -8 21 -11 26 -7 7 3 8 0 5 -10 -5 -12 -9
-13 -20 -4 -8 7 -14 7 -14 1 0 -5 7 -15 15 -22 12 -10 16 -9 21 4 4 10 13 15
22 11 8 -3 21 0 28 6 14 11 18 3 15 -26 0 -6 7 -11 17 -12 11 -1 18 6 19 18 1
10 -3 18 -9 16 -6 -1 -13 5 -15 13 -4 12 -3 12 5 2 5 -8 12 -13 16 -13 24 3
28 0 16 -14 -8 -9 -9 -15 -2 -15 6 0 18 10 26 22 9 12 16 18 16 12 0 -5 -5
-15 -12 -22 -9 -9 -9 -12 -1 -12 12 0 28 19 28 33 0 4 3 7 8 7 4 0 10 0 13 0
4 0 1 -6 -5 -13 -6 -8 -8 -17 -4 -20 9 -10 25 -9 19 1 -7 12 12 38 21 29 4 -5
1 -12 -7 -17 -13 -9 -13 -10 0 -10 13 0 13 -1 0 -10 -8 -5 -13 -10 -10 -11 3
0 12 -2 22 -4 13 -2 16 4 13 31 -2 26 1 32 10 24 6 -5 14 -7 18 -4 3 3 8 -4
12 -15 3 -12 11 -21 16 -21 13 0 11 14 -3 28 -6 6 -9 14 -6 18 4 3 14 -8 23
-25 8 -17 20 -31 25 -31 14 0 8 23 -10 37 -8 6 -12 15 -7 19 4 4 7 2 7 -5 0
-7 5 -9 10 -6 6 3 10 1 10 -5 0 -6 5 -8 13 -4 8 5 8 2 -2 -9 -7 -9 -9 -17 -3
-17 5 0 15 6 21 14 10 11 8 17 -6 25 -10 6 -13 10 -8 11 6 0 17 -4 25 -10 12
-7 12 -12 -5 -29 -10 -12 -16 -23 -13 -26 7 -7 39 30 42 49 1 9 5 16 9 16 4 0
13 0 20 0 6 0 4 -5 -5 -11 -25 -14 -23 -32 2 -19 11 6 20 7 20 3 1 -4 10 3 20
16 12 14 20 18 20 10 0 -9 3 -10 8 -4 4 6 14 10 22 10 8 -1 20 2 26 7 7 5 17
2 24 -7 9 -10 9 -15 1 -15 -6 0 -11 6 -11 13 0 8 -3 9 -8 1 -4 -6 -15 -12 -24
-12 -43 -4 -48 -6 -45 -16 3 -6 11 -9 18 -7 8 2 41 4 73 5 61 2 78 14 57 40
-10 11 -5 13 21 11 40 -3 68 -14 68 -26 0 -5 5 -9 11 -9 5 0 7 5 4 10 -3 6 -1
10 4 10 16 0 13 -16 -4 -30 -9 -7 -15 -8 -15 -2 0 6 -8 9 -17 7 -10 -2 -20 -4
-23 -4 -2 -1 6 -8 18 -17 25 -17 29 -33 7 -30 -20 3 -32 16 -14 16 12 0 12 2
0 9 -9 6 -22 6 -33 0 -13 -7 -18 -6 -18 3 0 9 -3 9 -10 -2 -11 -17 -102 -22
-94 -5 3 5 -2 1 -10 -9 -9 -11 -16 -16 -16 -10 0 5 -6 2 -13 -6 -16 -20 -38
-24 -31 -5 4 8 9 13 13 11 3 -2 15 3 26 11 20 15 20 15 -2 8 -14 -4 -23 -2
-23 4 0 6 -5 11 -11 11 -5 0 -8 -4 -5 -9 3 -5 -3 -20 -15 -32 -11 -13 -17 -18
-13 -10 5 10 3 12 -6 6 -9 -6 -11 -4 -6 6 4 8 0 5 -8 -5 -9 -11 -16 -15 -16
-10 0 6 -11 10 -24 10 -14 0 -22 -4 -19 -10 3 -5 1 -6 -6 -2 -6 4 -8 12 -5 18
4 6 0 6 -13 -1 -11 -6 -24 -7 -28 -3 -5 4 -5 2 -2 -4 3 -6 0 -11 -8 -11 -10 0
-12 4 -5 12 7 9 6 14 -5 18 -10 5 -14 1 -12 -13 2 -11 6 -23 10 -26 14 -14 7
-26 -8 -14 -8 7 -14 19 -13 26 2 7 -1 12 -7 11 -5 -1 -9 -5 -8 -8 1 -3 -4 -6
-12 -6 -8 0 -12 3 -10 7 2 4 -2 7 -10 7 -8 0 -12 -4 -10 -8 3 -3 -2 -12 -10
-19 -18 -15 -19 -7 -4 23 10 22 10 22 -6 2 -17 -20 -17 -20 -11 1 4 14 2 21
-9 21 -18 0 -18 -2 -5 -28 10 -17 9 -18 -15 -7 -16 7 -21 14 -14 18 7 5 8 10
1 14 -20 12 -21 -25 -2 -44 11 -11 20 -22 20 -25 0 -3 0 -9 0 -15 0 -5 8 -6
17 -3 15 6 15 7 -2 13 -15 5 -16 8 -5 15 9 6 21 -1 37 -21 16 -20 21 -23 16
-9 -6 17 -4 18 8 8 12 -10 18 -9 29 7 14 20 31 18 26 -3 -1 -7 -1 -9 1 -4 3 4
9 5 14 1 5 -3 9 -2 8 3 -3 20 2 29 19 30 11 1 18 -6 19 -19 2 -16 -1 -17 -13
-7 -12 10 -13 9 -8 -5 8 -21 30 -15 28 8 -1 9 3 15 10 13 6 -3 10 -11 8 -18
-1 -8 4 -6 13 5 8 10 12 23 9 27 -3 5 -1 9 4 9 19 0 21 -14 7 -37 -9 -13 -11
-23 -5 -23 5 0 10 5 10 10 0 6 7 10 15 10 18 0 19 12 3 28 -7 7 -8 12 -2 12 6
0 15 -5 22 -12 8 -8 15 -8 27 2 9 8 15 8 15 2 0 -6 -10 -18 -22 -26 -12 -9
-19 -19 -15 -23 4 -4 14 3 23 15 l15 22 30 -20 c16 -12 29 -17 29 -11 0 6 -5
11 -11 11 -5 0 -7 5 -3 12 5 8 11 6 20 -6 11 -16 13 -16 19 3 3 11 12 18 19
15 8 -3 23 4 34 16 l20 22 13 -20 c10 -16 16 -18 26 -10 9 7 17 7 28 -2 10 -9
15 -9 15 -1 0 6 -4 11 -10 11 -19 0 -10 16 10 17 11 1 18 -2 15 -6 -6 -11 23
-36 32 -27 3 3 1 6 -5 6 -6 0 -9 7 -5 16 3 9 13 14 24 11 13 -3 16 0 12 11 -5
10 -2 13 6 8 8 -5 18 0 27 13 9 12 20 19 25 16 5 -4 9 -1 9 5 0 6 5 8 10 5 6
-4 7 -12 4 -18 -4 -7 -4 -9 1 -5 5 5 15 -1 22 -12 10 -14 21 -19 34 -15 14 5
17 3 13 -9 -3 -9 -2 -16 4 -16 6 0 9 8 7 18 -2 11 -10 16 -26 14 -23 -2 -23
-2 -7 14 13 13 20 15 30 6 11 -8 21 -4 45 19 32 29 50 38 38 19 -12 -20 6 -9
32 17 l25 28 -16 -27 c-9 -16 -13 -28 -9 -28 5 0 1 -5 -7 -11 -13 -9 -13 -10
0 -6 8 2 15 9 15 16 0 12 23 31 38 31 5 0 6 -4 2 -9 -3 -5 0 -13 6 -17 7 -4 9
-3 6 3 -4 6 0 17 9 24 13 11 14 9 9 -13 -4 -14 -2 -29 3 -32 6 -3 8 2 5 13 -3
10 1 22 8 27 9 5 10 2 5 -12 -4 -10 -4 -15 0 -11 4 4 14 1 22 -6 13 -10 12 -7
-1 13 -10 16 -13 30 -8 39 11 17 3 43 -11 35 -6 -4 -5 -10 3 -15 11 -7 11 -9
1 -9 -7 0 -10 -5 -6 -11 4 -7 1 -10 -7 -7 -8 3 -15 10 -15 16 -3 23 -4 24 -21
11 -14 -12 -15 -12 -9 0 6 9 -1 8 -20 -4 l-29 -17 24 19 c20 17 21 20 5 18
-23 -1 -64 -24 -46 -25 7 0 10 -5 6 -11 -4 -8 -9 -7 -16 2 -7 11 -8 10 -4 -4
3 -11 2 -16 -4 -12 -6 3 -10 1 -10 -6 0 -8 -5 -7 -17 2 -9 8 -14 9 -10 3 3 -6
0 -11 -8 -11 -8 0 -12 3 -10 7 2 4 -2 7 -10 7 -8 0 -11 -5 -8 -10 3 -6 1 -7
-5 -3 -8 5 -9 13 -2 26 7 13 6 19 -5 23 -10 5 -13 -1 -10 -24 2 -16 -1 -29 -6
-29 -6 0 -8 10 -4 23 5 18 3 17 -10 -6 -9 -15 -13 -33 -10 -40 4 -6 -1 -3 -9
7 -9 11 -16 15 -16 10 0 -6 -6 -11 -12 -12 -37 -2 -89 -22 -59 -22 7 0 9 -5 6
-10 -5 -8 -11 -8 -19 -1 -7 6 -17 7 -21 3 -5 -4 -5 -2 -1 5 4 8 0 11 -13 8
-18 -3 -19 -1 -8 15 10 16 13 17 20 5 4 -8 13 -15 18 -15 26 0 -23 44 -51 45
-16 1 -33 5 -37 9 -4 4 7 5 25 1 22 -4 32 -1 32 7 0 8 5 5 11 -4 5 -10 15 -18
21 -18 6 0 5 7 -3 18 -13 15 -12 16 4 3 9 -8 21 -11 24 -7 4 4 1 12 -7 17 -12
9 -11 10 4 5 10 -4 24 -2 31 4 8 7 12 5 13 -5 1 -8 3 -21 4 -29 1 -8 10 -14
20 -13 18 1 24 12 11 20 -5 2 -2 2 5 0 8 -1 12 3 9 9 -2 7 -11 12 -21 10 -9
-2 -16 3 -16 9 0 7 3 9 7 6 3 -4 13 -1 21 6 11 8 14 8 9 0 -4 -6 -3 -14 2 -17
5 -4 13 3 16 15 6 17 9 19 17 8 7 -11 11 -11 15 -1 2 6 9 12 15 12 6 0 4 -7
-3 -17 -12 -15 -12 -16 4 -10 10 4 27 2 37 -3 10 -6 21 -6 24 -1 3 4 -6 13
-19 19 -14 7 -25 17 -25 24 0 9 3 9 8 2 15 -21 41 -23 66 -3 14 11 31 17 37
14 6 -4 20 2 32 13 20 18 48 31 72 32 6 1 21 8 35 17 22 15 24 15 12 1 -8 -10
-9 -19 -3 -22 5 -4 12 3 16 14 4 11 10 18 15 15 5 -3 11 1 14 7 4 9 5 8 5 -2
-2 -30 1 -41 10 -36 5 4 8 17 6 31 -2 19 1 23 10 15 10 -8 17 -5 29 12 14 19
18 20 26 8 5 -8 6 -18 4 -22 -3 -4 -1 -8 4 -8 16 0 21 13 12 30 -7 14 -6 17 8
16 10 0 16 5 14 14 -2 8 0 12 3 8 4 -4 17 -3 28 3 13 7 17 7 13 1 -3 -6 -2
-13 4 -17 9 -6 14 8 11 28 -1 5 3 6 9 2 5 -3 10 -1 10 5 0 6 5 8 10 5 6 -3 13
1 17 11 5 14 8 13 18 -6 12 -23 12 -23 26 9 18 40 26 39 25 -3 0 -19 -4 -32
-8 -30 -3 2 -9 0 -13 -6 -4 -6 -11 -8 -16 -5 -5 3 -6 -2 -3 -12 5 -17 5 -17
-6 0 -6 9 -16 17 -22 17 -6 0 -3 -9 6 -19 13 -14 14 -21 5 -27 -7 -4 -10 -3
-5 4 4 7 -1 10 -14 7 -13 -3 -18 0 -14 7 4 7 2 8 -5 4 -6 -4 -9 -12 -6 -17 4
-5 1 -9 -4 -9 -20 0 -26 -3 -39 -19 -10 -12 -12 -12 -6 -1 6 11 1 11 -20 -4
-17 -11 -25 -13 -20 -5 6 12 5 12 -9 0 -10 -7 -17 -9 -17 -3 0 12 -47 9 -58
-3 -4 -5 1 -5 10 -2 10 3 20 2 23 -4 4 -5 11 -7 16 -4 5 4 9 1 9 -5 0 -7 -7
-10 -15 -7 -8 4 -17 2 -21 -4 -3 -6 -12 -8 -19 -5 -7 2 -16 2 -19 -2 -11 -10
-36 -11 -36 -1 0 6 -4 7 -10 4 -5 -3 -10 -11 -10 -16 0 -6 4 -8 9 -4 6 3 9 -4
8 -15 -1 -11 -6 -18 -12 -16 -5 2 -9 9 -7 15 1 7 -1 10 -6 7 -5 -3 -8 6 -6 19
2 21 -1 24 -19 21 -43 -8 -71 -23 -59 -30 6 -4 20 -2 31 4 26 14 28 13 34 -10
3 -13 1 -18 -5 -13 -6 3 -8 2 -5 -3 3 -6 1 -16 -5 -24 -7 -11 -8 -5 -4 20 4
24 3 30 -4 19 -6 -10 -21 -15 -44 -13 -33 3 -35 2 -23 -16 6 -11 15 -20 20
-20 4 0 6 4 2 9 -11 19 15 21 31 2 10 -11 24 -17 33 -14 11 4 8 -2 -6 -16 -13
-12 -23 -26 -23 -32 0 -6 12 3 26 20 28 33 43 33 45 -2 1 -18 2 -18 6 -4 3 10
-1 24 -7 32 -8 10 -9 15 -2 15 6 0 15 -7 20 -17 13 -22 44 -10 35 13 -4 12 -3
15 6 10 7 -5 22 1 37 15 13 12 24 17 24 11 0 -7 5 -12 11 -12 8 0 8 5 -1 15
-8 9 -9 15 -2 15 6 0 14 -4 17 -10 3 -5 11 -10 18 -10 6 0 2 7 -9 15 -18 14
-18 15 6 12 14 -1 30 -11 37 -22 7 -11 12 -15 13 -9 0 6 -9 23 -21 38 -11 14
-16 26 -10 26 5 0 16 -9 24 -20 12 -17 16 -18 26 -7 6 8 7 18 3 22 -4 5 1 5
10 2 12 -4 15 -2 11 9 -4 10 0 12 11 8 11 -4 16 0 17 12 0 12 3 14 6 6 4 -10
8 -10 19 -1 8 6 14 7 14 2 0 -6 -18 -23 -39 -38 -25 -16 -38 -32 -34 -41 6
-17 16 -19 11 -2 -5 14 33 48 60 53 9 2 18 4 20 4 1 1 -2 9 -7 20 -6 10 -8 21
-5 24 9 9 32 -16 27 -29 -2 -7 0 -15 6 -19 7 -4 8 0 4 11 -5 13 -3 15 8 9 12
-8 12 -6 1 8 -8 9 -11 21 -7 26 3 6 0 8 -8 5 -8 -3 -14 1 -14 10 0 8 9 14 19
13 18 -1 22 -9 18 -37 -1 -9 8 -3 22 13 27 31 43 36 28 8 -13 -25 -13 -31 2
-31 6 0 8 3 5 6 -11 12 13 43 28 38 8 -4 15 -1 15 6 0 6 -5 8 -12 4 -8 -5 -9
-2 -5 10 4 10 1 19 -8 22 -7 3 -11 13 -8 22 4 14 3 14 -5 3 -13 -18 -52 -22
-72 -7 -13 9 -13 9 -2 -5 10 -13 9 -19 -3 -29 -9 -7 -18 -10 -22 -6 -3 3 -1 6
5 6 6 0 9 11 6 25 -2 14 0 25 6 25 6 0 8 6 4 13 -6 9 -5 9 8 0 15 -13 28 -8
28 9 0 5 -5 6 -12 2 -7 -4 -8 -3 -4 5 4 6 13 8 19 4 17 -11 31 -10 39 2 12 16
9 27 -4 19 -8 -4 -10 -3 -5 2 5 5 12 9 15 9 4 0 12 4 19 8 6 4 14 3 18 -3 3
-5 11 -10 17 -10 6 0 6 6 -2 15 -7 9 -10 18 -6 22 3 3 6 2 6 -4 0 -5 7 -10 15
-10 8 0 14 7 13 16 -2 9 3 15 10 13 7 -1 15 5 18 13 3 8 10 13 14 10 5 -3 11
-1 15 4 3 6 12 8 20 4 18 -6 20 13 3 21 -7 2 -2 4 12 3 16 -1 25 3 25 13 0 9
8 14 19 12 12 -2 16 1 10 9 -4 8 -3 10 4 5 7 -4 12 -3 12 3 0 6 7 8 15 4 10
-3 15 -1 13 7 -2 8 7 19 19 25 13 7 20 14 17 17 -3 3 3 5 13 5 10 -1 17 4 15
11 -1 8 2 11 8 7 5 -3 10 1 10 9 0 9 4 16 10 16 5 0 7 -7 4 -15 -5 -11 -2 -13
10 -9 12 5 13 10 6 25 -9 15 -8 17 6 12 13 -5 15 -3 9 8 -6 11 -5 12 6 1 18
-17 34 -15 20 2 -9 11 -9 16 0 22 7 4 9 3 5 -4 -3 -6 -2 -13 3 -17 17 -10 0
-34 -21 -30 -15 3 -17 1 -9 -9 13 -15 5 -27 -14 -20 -7 3 -16 1 -20 -5 -3 -6
-1 -11 4 -11 6 0 11 -5 11 -12 0 -6 -3 -8 -7 -5 -3 4 -15 0 -25 -10 -11 -9
-18 -11 -18 -5 0 7 5 12 11 12 5 0 7 5 3 11 -5 8 -10 6 -16 -5 -5 -9 -6 -21
-2 -28 5 -7 3 -8 -6 -3 -9 6 -11 4 -5 -5 5 -9 4 -11 -3 -6 -8 4 -10 2 -6 -7 3
-8 1 -18 -5 -22 -6 -3 -11 0 -11 7 -1 8 -6 6 -15 -5 -7 -11 -11 -26 -8 -35 5
-10 3 -13 -6 -8 -7 5 -10 14 -8 20 3 7 -1 13 -8 13 -7 0 -11 -7 -8 -16 4 -14
4 -14 -6 -1 -7 9 -11 10 -11 3 0 -6 -9 -10 -19 -8 -16 3 -19 -1 -15 -22 3 -17
1 -23 -8 -20 -7 2 -12 10 -10 17 1 6 -3 10 -10 8 -7 -3 -13 -10 -13 -16 0 -5
-3 -14 -7 -17 -4 -4 -3 -16 3 -26 7 -13 6 -19 -1 -19 -6 0 -8 -5 -4 -11 4 -8
1 -8 -12 -1 -11 6 -34 9 -51 7 -18 -1 -33 1 -33 5 0 3 -7 7 -15 7 -18 0 -19
-9 -3 -25 7 -7 8 -12 2 -12 -5 0 -10 -9 -11 -19 -2 -22 39 -71 59 -71 7 0 4 6
-7 12 -26 15 -34 28 -28 45 7 19 23 6 17 -15 -5 -14 -3 -14 10 2 8 10 13 23 9
29 -3 5 4 6 18 2 17 -4 20 -3 10 3 -24 17 20 20 54 5 24 -11 27 -11 14 -1 -11
9 -16 27 -16 51 1 20 2 37 4 37 15 0 51 -25 46 -33 -3 -6 -1 -7 5 -3 6 4 9 13
5 21 -3 8 0 15 6 15 6 0 11 -5 11 -11 0 -8 5 -8 15 1 8 7 13 16 10 20 -3 4 2
11 11 14 24 9 27 7 14 -9 -17 -20 -1 -38 20 -24 12 9 12 10 -3 5 -12 -4 -17
-2 -14 6 2 7 10 12 17 10 11 -2 10 1 0 13 -19 23 -21 45 -4 38 8 -3 12 -9 9
-14 -3 -4 6 -16 20 -25 20 -13 29 -14 38 -5 9 10 8 11 -7 5 -13 -5 -17 -4 -12
4 4 7 2 10 -6 7 -9 -4 -13 5 -14 30 l-1 35 34 -21 c18 -11 33 -16 33 -11 0 5
-9 12 -20 15 -13 3 -18 10 -14 21 3 9 10 13 15 10 5 -3 7 -11 3 -17 -3 -7 2
-3 10 7 9 11 14 28 11 37 -4 12 -1 17 12 15 9 -2 19 -9 21 -16 3 -8 0 -10 -8
-5 -8 5 -11 4 -6 -3 3 -6 2 -13 -4 -17 -5 -3 -9 -16 -9 -28 1 -20 2 -21 6 -2
3 11 12 28 20 37 8 9 12 22 8 27 -3 6 6 16 20 23 15 7 24 17 21 25 -7 17 0 16
23 -4 11 -9 17 -21 14 -27 -3 -6 -2 -7 2 -3 5 4 10 14 11 22 1 8 11 27 22 42
10 15 17 34 14 41 -3 11 0 12 18 2 18 -10 22 -9 27 9 3 11 12 22 20 25 11 5
13 0 8 -17 -5 -20 -5 -20 6 -3 9 14 8 21 -6 35 -10 9 -15 11 -11 5 3 -7 -1
-14 -9 -18 -8 -3 -15 -12 -15 -20 0 -10 -6 -13 -15 -10 -8 4 -15 10 -15 16 0
5 4 7 9 4 8 -6 18 9 19 28 1 19 27 25 45 9 12 -12 21 -13 28 -6 16 16 1 35
-22 28 -14 -5 -17 -3 -13 9 3 9 11 13 17 9 5 -3 7 -1 4 4 -4 6 0 14 9 17 12 4
15 2 11 -9 -8 -20 9 -28 30 -15 15 9 14 10 -7 5 l-25 -6 24 19 c15 12 21 24
16 32 -6 10 -4 12 8 7 12 -4 14 -2 10 10 -4 11 -2 14 5 9 7 -4 12 -2 12 3 0
10 -14 15 -34 12 -5 -1 -6 5 -2 14 3 9 6 21 6 26 0 6 5 7 10 4 6 -4 17 -2 24
4 10 9 15 8 20 -4 3 -9 2 -13 -4 -10 -6 3 -10 2 -10 -4 0 -6 -8 -8 -17 -5 -14
5 -15 4 -4 -4 7 -5 22 -7 32 -5 10 3 19 0 19 -6 0 -6 5 -11 11 -11 6 0 4 9 -4
21 -13 18 -13 59 1 59 3 0 15 -8 26 -18 21 -17 21 -17 2 5 -17 20 -17 23 -2
29 9 3 16 10 16 16 0 5 -4 7 -9 3 -5 -3 -12 -1 -15 4 -3 5 1 12 10 15 11 4 18
-1 21 -14 6 -22 18 -26 29 -8 4 7 3 8 -4 4 -7 -4 -12 -2 -12 4 0 6 7 13 15 16
8 4 12 10 9 15 -3 5 -1 9 5 9 5 0 23 11 39 25 24 20 31 22 36 10 3 -8 10 -15
16 -15 5 0 2 9 -7 19 -16 20 -17 19 -46 -5 -27 -23 -47 -24 -47 -3 0 6 5 7 11
3 13 -8 68 42 81 76 7 18 12 21 15 10 14 -45 13 -44 30 -27 14 14 15 19 4 29
-10 11 -11 10 -6 -3 4 -10 2 -20 -4 -24 -7 -3 -11 2 -11 15 0 11 -6 23 -13 26
-15 5 -19 34 -5 34 5 0 11 -7 14 -15 4 -8 10 -15 15 -15 4 0 5 7 2 17 -4 9 -2
14 3 10 6 -3 15 3 22 14 14 23 7 25 -14 4 -18 -18 -35 -20 -31 -4 1 6 -5 14
-13 16 -13 4 -13 3 0 -7 13 -10 12 -11 -3 -6 -12 4 -16 2 -11 -6 5 -7 3 -8 -6
-3 -9 6 -11 4 -5 -5 5 -8 4 -11 -3 -6 -12 7 -10 -13 4 -49 6 -17 5 -18 -7 -8
-21 17 -21 57 1 80 10 12 16 24 12 27 -3 4 1 4 11 0 13 -4 16 -2 12 9 -4 8 2
23 12 32 10 10 18 22 18 26 0 5 9 19 20 31 11 13 20 26 20 30 0 4 8 16 17 28
10 11 14 20 10 20 -4 0 0 5 8 10 8 5 15 13 15 17 0 4 10 22 21 38 12 17 22 32
22 35 2 21 17 40 31 40 14 0 14 -2 1 -10 -13 -8 -13 -10 -1 -10 11 0 9 -4 -5
-15 -16 -13 -13 -13 15 1 29 14 32 18 18 25 -9 5 -15 15 -13 22 1 6 1 9 -1 5
-3 -5 -9 -8 -15 -8 -6 0 -5 6 2 15 10 12 16 13 27 4 11 -10 12 -9 7 5 -3 9
-11 16 -18 16 -6 0 -4 5 4 10 8 5 11 10 7 10 -5 0 1 12 12 26 11 15 18 31 15
36 -3 5 3 12 15 15 12 3 21 10 21 15 0 5 -6 6 -12 2 -9 -5 -9 -2 1 9 7 9 10
17 6 17 -4 0 -2 7 5 15 7 8 9 15 4 16 -5 0 0 4 11 9 14 5 26 2 40 -9 l20 -16
-20 24 -20 24 21 -7 c12 -4 28 0 40 10 18 15 18 15 -3 5 -34 -17 -40 -12 -13
9 14 11 20 20 14 20 -5 0 -15 -5 -22 -12 -7 -7 -12 -8 -12 -2 0 5 5 15 11 21
8 8 7 13 -2 18 -7 5 -10 4 -5 -3 3 -6 2 -13 -4 -17 -6 -4 -9 4 -8 19 2 20 5
23 20 15 13 -7 25 -5 40 6 13 8 18 15 12 15 -5 0 -15 -5 -22 -12 -26 -26 -21
1 6 30 23 24 26 33 16 46 -10 15 -13 15 -25 -1 -11 -13 -11 -17 -1 -20 6 -3 9
-9 6 -15 -4 -6 -10 -5 -16 3 -7 10 -8 8 -3 -8 6 -22 -9 -41 -20 -23 -3 5 -1
10 5 10 6 0 8 4 5 10 -3 5 2 26 11 46 10 20 17 42 17 50 0 7 5 10 10 7 6 -4 8
0 4 9 -7 21 20 59 37 52 18 -7 31 13 18 29 -5 7 -8 22 -7 34 1 12 -3 19 -8 16
-5 -3 -5 2 1 13 5 11 7 25 5 32 -3 6 2 12 11 12 10 0 14 -8 11 -27 -2 -16 -2
-22 1 -15 3 6 10 12 15 12 6 0 8 -4 4 -9 -3 -5 -1 -12 4 -15 13 -8 7 24 -6 32
-5 4 -9 16 -7 27 2 10 -1 24 -5 30 -10 12 -11 45 -1 45 3 0 6 8 7 18 2 47 8
70 15 66 5 -3 6 -9 3 -14 -3 -5 0 -12 5 -15 7 -5 5 -12 -7 -22 -13 -10 -15
-16 -5 -19 6 -3 10 -9 7 -14 -3 -4 3 -14 13 -21 15 -13 16 -12 3 4 -7 9 -10
17 -6 17 4 0 1 8 -6 17 -12 15 -12 16 4 10 11 -4 16 -3 12 3 -3 6 0 10 7 10
10 0 10 2 -1 9 -8 5 -16 15 -17 23 -2 7 -5 23 -8 35 -3 17 0 21 15 20 24 -2
25 -14 2 -20 -17 -4 -17 -5 0 -6 11 -1 15 -6 11 -13 -4 -6 -3 -8 3 -5 14 9 10
53 -5 49 -25 -5 -26 30 -1 49 20 15 22 20 11 31 -11 11 -12 10 -7 -4 4 -10 3
-18 -3 -18 -6 0 -8 12 -6 28 2 15 6 41 8 57 2 17 4 33 5 37 0 3 9 5 19 3 9 -1
11 0 5 2 -7 3 -13 9 -13 14 0 6 -4 7 -10 4 -6 -4 -7 2 -1 17 10 27 11 32 11
57 0 11 8 22 18 24 15 4 15 5 0 6 -10 1 -16 9 -15 20 0 11 5 17 9 15 4 -3 8 0
8 5 0 6 -6 11 -12 11 -9 0 -8 3 2 10 11 7 12 12 3 21 -7 7 -9 19 -4 28 4 9 7
82 6 164 0 81 3 147 8 147 4 0 5 -5 1 -12 -5 -7 -3 -8 6 -3 10 6 9 11 -6 22
-16 11 -17 18 -7 44 10 25 10 29 -2 19 -10 -8 -13 -8 -11 2 1 7 5 18 9 25 4 6
3 14 -3 18 -5 3 -10 13 -10 21 0 8 4 13 9 9 5 -3 13 -1 16 5 4 6 1 9 -7 8 -8
-2 -13 6 -12 20 0 12 -4 22 -10 22 -6 0 -5 5 2 12 7 7 12 17 12 23 0 5 -5 3
-11 -5 -8 -12 -10 -10 -8 10 1 14 -1 32 -4 40 -4 8 -8 42 -9 75 -2 33 -6 62
-9 65 -4 3 -9 25 -13 49 -3 24 -8 46 -11 49 -3 3 1 12 8 20 8 10 8 13 1 9 -13
-8 -27 19 -18 34 3 5 -1 9 -8 9 -9 0 -9 3 2 10 11 7 12 10 2 10 -8 0 -12 9
-10 23 2 12 -4 28 -12 34 -13 11 -13 14 0 23 13 8 13 10 -2 10 -11 0 -15 5
-12 15 4 8 11 12 17 8 6 -3 7 -1 3 6 -4 6 -11 9 -16 6 -4 -3 -13 9 -19 25 -5
17 -8 30 -5 30 2 0 -2 13 -11 30 -8 16 -15 31 -14 32 0 2 -5 16 -11 32 -6 16
-9 35 -6 42 3 7 -2 15 -11 18 -9 4 -13 9 -10 13 4 3 3 11 -1 17 -5 6 -19 38
-32 71 -13 33 -28 66 -34 74 -9 12 -7 13 7 8 11 -4 16 -3 12 3 -3 6 -13 10
-21 10 -8 0 -13 3 -12 8 1 4 -3 17 -10 30 -7 12 -10 28 -6 34 4 7 3 8 -4 4
-11 -7 -16 7 -15 41 1 7 -3 10 -8 7 -5 -3 -14 8 -21 23 -7 15 -21 41 -31 56
-10 15 -16 34 -13 42 3 8 0 12 -7 9 -11 -4 -21 13 -37 61 -2 6 -10 15 -18 21
-9 7 -12 16 -7 24 5 8 4 11 -1 7 -13 -8 -86 102 -78 116 4 7 4 9 -1 5 -8 -8
-114 119 -115 137 0 6 -9 16 -20 23 -11 7 -20 16 -20 21 0 5 -16 26 -35 46
-20 20 -33 40 -30 46 4 5 3 8 -2 7 -5 -2 -70 59 -146 135 -75 75 -140 137
-145 137 -15 0 -43 36 -35 45 5 4 3 6 -3 2 -5 -3 -41 19 -80 49 -38 30 -76 60
-84 67 -9 7 -43 30 -75 52 -33 22 -61 43 -63 48 -2 4 -8 7 -14 7 -6 0 -25 10
-42 23 -17 12 -51 33 -76 46 -25 14 -48 29 -51 34 -3 5 -10 9 -15 10 -5 1 -8
6 -6 10 1 5 -2 6 -7 3 -13 -8 -252 109 -243 119 4 5 2 5 -5 1 -7 -3 -40 5 -75
20 -35 14 -67 27 -73 28 -12 2 -173 55 -195 63 -8 3 -19 7 -25 8 -59 14 -101
29 -107 39 -5 8 -8 8 -8 0 0 -8 -16 -7 -52 3 -29 7 -64 15 -78 18 -56 10 -86
15 -109 20 -13 2 -49 7 -80 11 -31 3 -64 8 -74 10 -48 9 -474 24 -481 17z
m-2916 -3063 c0 -5 -5 -10 -11 -10 -5 0 -7 5 -4 10 3 6 8 10 11 10 2 0 4 -4 4
-10z m6040 -790 c0 -5 -2 -10 -4 -10 -3 0 -8 5 -11 10 -3 6 -1 10 4 10 6 0 11
-4 11 -10z m-34 -107 c-3 -3 -1 -14 4 -24 8 -14 6 -17 -10 -16 -21 1 -27 21
-10 32 6 4 7 11 4 17 -5 7 -2 8 5 4 7 -5 10 -10 7 -13z m-36 -183 c0 -5 -2
-10 -4 -10 -3 0 -8 5 -11 10 -3 6 -1 10 4 10 6 0 11 -4 11 -10z m-78 -146 c-9
-7 -19 -10 -22 -8 -2 3 0 8 6 12 6 4 10 16 8 27 -3 20 -2 20 11 1 13 -17 12
-21 -3 -32z m-5649 -18 c7 2 20 -11 29 -31 15 -33 15 -36 0 -33 -10 2 -18 9
-18 16 -1 6 -2 20 -3 30 -1 15 -3 15 -11 2 -8 -12 -10 -12 -10 -1 0 10 -3 11
-13 3 -8 -7 -18 -7 -27 -2 -14 9 -13 11 9 14 5 0 13 5 17 9 5 5 10 4 12 -2 2
-5 9 -8 15 -5z m51 -142 c3 -8 2 -12 -4 -9 -6 3 -10 10 -10 16 0 14 7 11 14
-7z m5253 -486 c2 -17 0 -19 -7 -8 -5 8 -6 18 -4 22 8 12 10 10 11 -14z m-45
-5 c-1 -4 7 -16 15 -26 15 -16 14 -19 -7 -42 -13 -14 -31 -24 -39 -23 -11 2
-15 -4 -14 -17 2 -29 -17 -59 -29 -47 -15 15 -53 -5 -41 -21 6 -8 1 -20 -14
-34 -13 -12 -23 -17 -23 -11 0 7 -6 3 -14 -8 -13 -17 -15 -17 -21 -2 -6 16 11
44 47 76 9 9 14 20 11 26 -3 6 0 5 8 -1 18 -18 34 -16 19 2 -12 14 -7 20 14
16 5 -1 6 5 3 13 -7 16 36 60 48 49 4 -5 5 0 2 9 -4 11 0 21 11 27 9 6 13 11
9 11 -5 0 -5 5 -2 11 7 11 17 7 17 -8z m-4875 -49 c0 -17 -14 -8 -28 17 -9 18
-8 19 9 8 10 -6 19 -18 19 -25z m32 -57 c-8 -14 -13 -16 -25 -7 -17 15 -10 29
15 27 16 -1 18 -5 10 -20z m26 -37 c3 -5 1 -10 -4 -10 -6 0 -11 5 -11 10 0 6
2 10 4 10 3 0 8 -4 11 -10z m95 -84 c0 -10 -30 0 -34 11 -4 11 -1 11 14 3 11
-6 20 -12 20 -14z m4514 -11 c-4 -8 -11 -15 -18 -15 -6 0 -4 -5 4 -10 12 -8
12 -10 1 -10 -11 0 -11 -3 -1 -15 7 -8 17 -12 24 -8 6 4 5 -1 -3 -10 -18 -22
-32 -22 -24 1 5 14 3 13 -10 -3 -15 -18 -16 -18 -17 -2 0 9 4 17 9 17 5 0 8 8
6 18 -1 9 4 25 13 35 19 21 23 22 16 2z m-4464 -7 c0 -6 3 -8 7 -5 11 11 32
-14 26 -30 -4 -10 -2 -14 4 -10 14 9 69 -43 65 -61 -2 -8 1 -11 6 -8 5 3 19
-2 31 -11 16 -11 20 -18 12 -26 -21 -21 -11 -30 11 -11 22 18 22 18 8 0 -14
-17 -13 -18 6 -12 16 5 23 2 27 -14 3 -11 9 -19 14 -18 14 5 60 -36 55 -50 -2
-6 2 -10 10 -9 7 2 10 2 6 0 -4 -3 -10 -4 -13 -3 -7 1 -35 -26 -35 -34 0 -3
12 1 27 9 15 8 30 12 35 9 4 -3 8 0 8 7 0 6 21 -9 47 -35 25 -26 52 -45 59
-42 8 3 11 -3 8 -17 -3 -17 1 -23 17 -24 18 -2 19 0 7 15 -7 9 1 5 18 -8 18
-14 31 -29 30 -34 0 -5 5 -11 13 -14 8 -3 11 0 7 7 -5 7 -1 9 9 4 13 -5 14 -7
3 -14 -14 -9 -14 -9 20 -13 12 -2 28 -8 35 -15 9 -10 8 -11 -6 -5 -17 6 -18 5
-6 -14 11 -18 14 -19 24 -5 11 15 15 14 38 -3 15 -10 27 -23 27 -28 0 -6 -5
-5 -12 2 -7 7 -16 12 -21 12 -15 0 2 -18 39 -39 29 -17 35 -19 30 -6 -4 11 -2
14 7 8 6 -4 16 -8 22 -8 5 0 22 -22 37 -50 24 -44 34 -51 29 -21 -1 5 5 3 14
-4 14 -12 16 -12 13 1 -1 7 2 14 7 14 6 0 9 -13 9 -28 -2 -23 0 -26 12 -16 8
7 12 19 9 28 -3 11 1 9 12 -5 22 -25 73 -58 73 -46 0 4 -6 14 -12 22 -11 12
-10 12 5 1 12 -9 15 -21 11 -35 -6 -18 -5 -19 9 -7 9 7 14 18 10 25 -3 6 3 3
14 -7 11 -9 23 -14 28 -10 4 5 4 2 0 -6 -6 -11 -4 -13 8 -8 9 3 19 2 22 -4 4
-5 11 -7 16 -4 5 4 9 1 9 -4 0 -14 -13 -14 -27 0 -9 9 -12 7 -10 -10 1 -12 6
-20 13 -17 7 3 18 -2 24 -10 7 -8 17 -14 22 -14 6 0 5 7 -2 15 -18 21 -4 32
21 17 11 -7 25 -10 32 -6 7 4 4 -2 -5 -13 -23 -25 -23 -41 0 -21 35 30 43 31
32 3 -7 -18 -7 -33 0 -45 8 -16 8 -18 -5 -14 -8 4 -15 2 -15 -4 0 -6 8 -9 18
-8 19 3 23 26 7 39 -7 6 -6 10 3 14 6 2 10 8 8 12 -3 4 2 8 10 8 10 0 11 -4 4
-11 -5 -5 -10 -15 -10 -20 1 -6 9 -1 19 11 17 20 19 21 23 5 8 -28 -2 -45 -17
-32 -8 7 -16 7 -19 2 -3 -5 7 -15 23 -22 38 -15 45 -35 14 -36 -18 -2 -21 1
-13 11 17 20 -11 26 -33 6 -18 -15 -21 -14 -50 19 -35 39 -53 45 -66 23 -6
-11 -10 -12 -15 -4 -4 6 -2 11 4 11 7 0 6 5 -2 14 -8 8 -17 11 -24 5 -7 -5
-21 2 -39 21 -15 16 -31 27 -35 25 -10 -6 -24 25 -21 45 2 13 1 13 -8 0 -5 -8
-7 -18 -4 -24 4 -5 1 -6 -6 -1 -10 6 -11 3 -2 -13 7 -13 18 -19 30 -17 14 3
19 -2 18 -16 -1 -20 -17 -27 -17 -7 0 6 -3 9 -6 5 -7 -6 -34 17 -35 30 -1 12
-20 33 -31 33 -5 0 -6 -5 -3 -10 3 -6 -1 -13 -9 -16 -17 -7 -59 27 -78 61 -8
16 -8 18 2 8 7 -6 19 -9 26 -6 18 7 18 20 -1 20 -8 0 -12 -5 -8 -10 3 -5 -6
-2 -20 8 -17 11 -27 13 -32 5 -7 -11 -25 -4 -25 10 0 4 11 7 24 6 15 -2 23 1
20 9 -3 6 -11 12 -19 12 -8 0 -11 -5 -8 -11 4 -6 -1 -4 -11 3 -16 14 -16 16
-2 27 21 15 20 19 -5 21 -12 1 -18 -1 -15 -4 3 -4 0 -16 -8 -28 -12 -18 -12
-24 0 -40 8 -10 14 -15 14 -11 0 5 7 3 15 -4 31 -26 14 -31 -19 -6 -19 14 -46
30 -59 35 -18 7 -24 16 -22 35 4 32 -41 68 -51 41 -6 -14 -8 -14 -24 0 -9 8
-21 12 -25 8 -5 -5 -3 0 4 10 7 9 9 17 5 17 -5 0 -21 11 -36 25 -15 14 -30 25
-33 25 -22 -1 -27 1 -22 7 11 10 -13 32 -29 26 -7 -3 -12 -9 -9 -13 3 -5 1
-11 -3 -14 -5 -3 -16 10 -25 29 -13 28 -14 34 -2 39 8 3 17 1 20 -4 4 -6 1
-10 -4 -10 -6 0 -11 -5 -11 -10 0 -6 8 -5 20 2 11 7 15 15 10 16 -7 3 -7 9 1
18 8 10 8 14 0 14 -6 0 -11 -4 -11 -8 0 -5 -19 -8 -42 -6 -56 2 -58 3 -57 12
3 18 -2 35 -8 29 -3 -4 -20 4 -38 17 -22 17 -36 21 -47 15 -14 -8 -16 -3 -13
36 2 40 1 45 -15 40 -10 -3 -21 -1 -24 4 -4 6 -13 8 -21 4 -20 -7 -19 7 2 22
13 9 13 14 3 20 -9 6 -11 4 -6 -6 4 -8 -1 -3 -12 10 -13 16 -21 20 -26 12 -5
-7 -17 -1 -37 19 -17 16 -28 34 -24 40 10 17 -5 32 -20 20 -17 -14 -24 -3 -20
33 2 15 -1 27 -7 27 -6 0 -7 8 -4 18 5 14 4 14 -9 -2 -12 -16 -15 -17 -15 -4
0 15 12 25 33 27 4 1 7 -4 7 -11z m4415 -46 c-14 -10 -17 -32 -5 -33 6 -1 15
-3 20 -4 6 -1 15 -3 20 -4 6 0 10 -6 10 -12 0 -7 -9 -9 -21 -6 -15 4 -29 -3
-48 -21 -14 -15 -31 -25 -38 -24 -6 1 -10 -5 -8 -15 1 -10 -6 -25 -18 -34 -11
-9 -21 -25 -22 -35 0 -11 -9 -34 -20 -51 -18 -30 -20 -31 -36 -17 -18 16 -44
11 -34 -6 6 -9 -29 -32 -53 -36 -9 -2 -10 1 -3 10 6 7 7 17 3 21 -4 5 -2 5 5
1 16 -9 27 12 28 49 0 17 5 31 10 33 6 2 15 13 22 25 7 12 12 17 13 10 0 -9
14 -11 40 -3 3 1 -4 5 -15 10 -18 8 -18 9 -2 9 11 1 15 6 11 13 -4 6 -3 8 4 4
6 -3 15 2 21 11 6 10 11 14 11 8 0 -5 6 1 13 15 8 14 19 24 25 23 7 -2 12 4
12 13 0 11 6 14 23 9 18 -6 20 -5 10 6 -10 10 -9 16 4 31 9 10 19 16 22 13 3
-4 1 -9 -4 -13z m5 -122 c0 -5 -4 -10 -10 -10 -5 0 -10 5 -10 10 0 6 5 10 10
10 6 0 10 -4 10 -10z m-280 -213 c0 -5 -7 -6 -15 -3 -9 3 -18 -1 -21 -9 -4 -8
-11 -15 -17 -15 -5 0 -3 8 6 18 18 20 47 25 47 9z m-160 -101 c0 -6 5 -4 10 4
7 12 9 10 7 -8 -1 -23 -12 -29 -22 -11 -5 6 -11 4 -19 -7 -12 -15 -13 -14 -10
7 3 29 1 26 19 26 8 0 15 -5 15 -11z m-131 -97 c-7 -4 -17 -5 -21 -3 -8 5 -12
-11 -9 -30 1 -5 -5 -4 -13 3 -12 10 -17 9 -26 -6 -11 -17 -11 -16 -5 2 4 11 8
25 8 30 0 6 18 11 39 11 23 1 34 -2 27 -7z m-3052 -14 c0 -17 -13 -20 -21 -6
-4 5 0 12 6 14 7 3 13 6 14 6 0 1 1 -6 1 -14z m-83 -36 c-3 -5 -10 -7 -15 -3
-5 3 -7 10 -3 15 3 5 10 7 15 3 5 -3 7 -10 3 -15z m3038 -18 c4 -1 5 -8 2 -16
-4 -8 -9 -13 -13 -10 -16 9 -61 13 -56 4 4 -5 11 -7 16 -4 5 4 9 2 9 -4 0 -17
-18 -21 -24 -5 -3 8 -11 12 -17 8 -8 -5 -9 -3 -5 5 10 15 46 29 66 25 8 -1 18
-3 22 -3z m-2989 -34 c-3 -5 -9 -3 -14 4 -4 7 -5 17 -2 22 3 5 9 3 14 -4 4 -7
5 -17 2 -22z m2861 -28 c-25 -27 -37 -23 -18 6 9 14 20 22 26 19 5 -3 2 -14
-8 -25z m-55 -32 c0 -8 -2 -8 -6 1 -4 10 -10 7 -21 -10 -9 -13 -16 -26 -14
-30 4 -13 -15 -9 -27 6 -9 11 -5 18 21 33 34 21 49 21 47 0z m-105 -28 c-3 -6
0 -16 7 -21 10 -6 7 -7 -9 -3 -17 5 -30 1 -45 -13 -13 -12 -32 -19 -48 -17
-14 2 -32 -2 -40 -7 -12 -8 -11 -9 1 -5 10 3 15 -3 15 -19 0 -13 -3 -24 -6
-24 -11 0 -25 24 -23 38 1 6 2 16 3 20 0 4 13 9 28 10 15 1 31 6 36 11 5 5 16
7 23 4 8 -3 17 2 20 11 3 9 10 14 14 11 5 -3 11 -1 15 5 3 5 8 10 11 10 3 0 2
-5 -2 -11z m-364 -53 c0 -2 -7 -7 -16 -10 -8 -3 -12 -2 -9 4 6 10 25 14 25 6z
m280 -16 c0 -5 -4 -10 -10 -10 -5 0 -10 5 -10 10 0 6 5 10 10 10 6 0 10 -4 10
-10z m-96 -21 c-3 -5 -10 -7 -15 -3 -5 3 -7 10 -3 15 3 5 10 7 15 3 5 -3 7
-10 3 -15z m-2184 1 c0 -5 -2 -10 -4 -10 -3 0 -8 5 -11 10 -3 6 -1 10 4 10 6
0 11 -4 11 -10z m2076 -37 c-2 -9 -12 -17 -23 -18 -14 -1 -19 3 -16 12 3 7 9
11 13 8 5 -3 11 -1 15 5 9 15 14 12 11 -7z m-1852 -42 c-5 -5 -33 30 -34 43 0
4 9 -2 19 -15 11 -13 17 -26 15 -28z m56 45 c0 -3 -4 -8 -10 -11 -5 -3 -10 -1
-10 4 0 6 5 11 10 11 6 0 10 -2 10 -4z m379 -21 c7 3 8 0 5 -9 -8 -20 -7 -20
-30 6 -14 17 -15 20 -2 9 9 -7 22 -10 27 -6z m1351 11 c0 -2 -8 -10 -17 -17
-16 -13 -17 -12 -4 4 13 16 21 21 21 13z m-456 -29 c16 -12 16 -13 -4 -14 -11
-1 -18 2 -15 7 3 4 -1 11 -7 13 -7 3 -8 6 -2 6 5 1 18 -5 28 -12z m-1254 -7
c0 -5 -2 -10 -4 -10 -3 0 -8 5 -11 10 -3 6 -1 10 4 10 6 0 11 -4 11 -10z m561
-10 c6 0 7 5 3 12 -5 7 -3 8 5 3 9 -5 9 -11 3 -17 -12 -12 -32 -2 -31 15 0 9
2 9 6 0 2 -7 9 -13 14 -13z m1019 11 c0 8 6 5 14 -7 13 -16 15 -17 21 -3 3 9
12 16 20 16 10 0 7 -7 -8 -23 -19 -20 -24 -21 -33 -9 -9 12 -13 11 -30 -5 -19
-20 -19 -20 -33 3 -11 17 -11 19 0 10 20 -20 31 -15 23 9 -6 20 -5 21 10 9 13
-11 16 -11 16 0z m-1466 -12 c-9 -15 17 -21 33 -7 15 12 15 11 3 -8 -12 -20
-15 -20 -41 -5 -29 16 -31 28 -5 28 8 0 13 -4 10 -8z m96 -25 c0 -2 -9 -8 -20
-14 -15 -8 -18 -8 -14 3 4 11 34 21 34 11z m1190 -7 c0 -5 8 -6 18 -3 14 5 14
4 -2 -9 -25 -19 -29 -19 -49 3 -15 17 -15 18 8 18 14 0 25 -4 25 -9z m-1005
-17 c24 -27 -1 -37 -29 -11 -12 12 -26 18 -31 14 -4 -5 -6 -3 -2 2 9 18 44 15
62 -5z m922 13 c-4 -3 -2 -12 4 -19 16 -20 -9 -29 -30 -10 -16 15 -19 15 -36
-4 -10 -12 -25 -18 -32 -16 -7 3 -16 -2 -21 -11 -7 -11 -11 -12 -17 -4 -5 9
-10 9 -20 1 -18 -15 -34 -5 -28 18 5 19 12 22 78 23 22 1 46 6 53 11 6 6 12 7
12 4 0 -4 8 -2 18 3 20 12 28 14 19 4z m-617 -48 c11 7 26 -22 16 -32 -3 -4
-12 -1 -18 5 -8 8 -15 8 -24 1 -20 -17 -36 -1 -22 21 9 14 16 16 25 9 7 -6 17
-8 23 -4z m284 7 c2 -4 -4 -8 -14 -8 -10 0 -16 4 -14 8 3 4 9 8 14 8 5 0 11
-4 14 -8z m33 -7 c0 -8 -4 -15 -9 -15 -10 0 -11 14 -1 23 9 10 10 9 10 -8z
m-123 -4 c5 -1 3 -8 -4 -16 -10 -12 -21 -13 -59 -6 -2 1 2 7 8 15 7 8 20 13
29 11 9 -2 21 -4 26 -4z m-364 -21 c-6 -11 -13 -20 -16 -20 -2 0 0 9 6 20 6
11 13 20 16 20 2 0 0 -9 -6 -20z"/>
<path d="M5920 1600 c-12 -8 -12 -10 -1 -10 11 0 11 -3 1 -15 -7 -8 -16 -13
-20 -10 -11 6 -35 -24 -35 -44 0 -9 -7 -15 -15 -13 -11 3 -10 -2 4 -17 20 -22
32 -28 21 -11 -3 6 0 10 7 10 10 0 10 2 1 8 -10 6 -9 13 3 30 8 12 20 20 25
17 5 -4 16 1 25 9 9 9 11 16 4 16 -6 0 -8 5 -5 10 4 6 12 7 18 3 7 -4 6 0 -2
10 -7 9 -14 17 -15 17 0 0 -8 -5 -16 -10z m-20 -44 c0 -2 -8 -10 -17 -17 -16
-13 -17 -12 -4 4 13 16 21 21 21 13z"/>
<path d="M5802 1457 c-13 -14 -18 -27 -13 -35 6 -10 11 -10 21 3 7 8 10 18 7
22 -4 3 -2 12 4 20 19 22 4 15 -19 -10z m8 -17 c0 -5 -5 -10 -11 -10 -5 0 -7
5 -4 10 3 6 8 10 11 10 2 0 4 -4 4 -10z"/>
<path d="M5765 1409 c-4 -6 -5 -12 -2 -15 2 -3 7 2 10 11 7 17 1 20 -8 4z"/>
<path d="M1266 1359 c3 -5 12 -9 21 -9 19 0 9 13 -12 16 -8 1 -13 -2 -9 -7z"/>
<path d="M1280 1330 c13 -9 13 -11 0 -20 -13 -10 -13 -11 0 -9 8 1 23 -1 33
-6 13 -5 15 -11 7 -20 -9 -11 -5 -18 14 -30 15 -10 23 -22 19 -29 -4 -7 -1 -7
8 1 11 9 19 9 26 2 7 -7 14 -5 22 5 10 12 8 17 -11 27 -13 7 -24 12 -25 11 -2
-1 -8 -2 -14 -2 -8 0 -8 4 -2 13 8 8 2 19 -18 35 -19 16 -29 19 -29 10 0 -8
-4 -7 -11 5 -5 9 -15 17 -22 17 -7 0 -6 -4 3 -10z m61 -36 c10 -13 10 -17 0
-24 -10 -6 -8 -10 8 -15 11 -3 21 -11 21 -16 0 -5 -11 -2 -25 7 -19 12 -23 20
-15 29 8 10 6 16 -7 24 -10 6 -13 11 -7 11 6 0 17 -7 25 -16z m61 -58 c7 4 8
2 4 -5 -9 -13 -26 -5 -25 12 0 9 2 8 6 -1 2 -6 10 -9 15 -6z"/>
<path d="M1425 1178 c2 -26 13 -32 30 -18 15 12 20 4 16 -22 0 -5 4 -8 10 -8
8 0 7 -6 -2 -17 -12 -14 -12 -16 0 -8 11 6 13 4 8 -9 -6 -14 -3 -15 14 -6 31
17 34 39 10 63 -11 12 -21 16 -21 9 0 -6 5 -12 11 -12 5 0 7 -5 3 -11 -4 -8
-12 -2 -21 15 -8 15 -19 24 -25 20 -7 -5 -9 -2 -6 7 4 9 -1 15 -11 15 -10 0
-17 -7 -16 -18z m90 -55 c-2 -10 -4 -19 -4 -21 -1 -2 -6 0 -11 3 -8 5 -7 11 1
21 15 18 18 18 14 -3z"/>
<path d="M1560 1082 c0 -7 -4 -11 -9 -7 -17 10 -21 -12 -6 -25 8 -7 15 -9 15
-5 0 5 9 0 21 -11 20 -18 21 -18 36 1 15 20 15 20 9 -2 -8 -24 5 -36 28 -27
12 4 6 15 -25 46 -22 22 -42 38 -45 35 -9 -9 6 -28 17 -22 5 4 9 2 9 -4 0 -5
-9 -9 -19 -8 -11 0 -18 4 -16 7 2 3 0 12 -6 20 -6 11 -9 12 -9 2z m10 -18 c0
-8 -19 -13 -24 -6 -3 5 1 9 9 9 8 0 15 -2 15 -3z m35 -32 c-3 -3 -11 0 -18 7
-9 10 -8 11 6 5 10 -3 15 -9 12 -12z"/>
<path d="M1678 958 c-21 -18 -21 -19 -1 -9 18 9 25 7 42 -15 12 -15 21 -21 21
-13 0 8 7 4 16 -9 8 -12 20 -20 25 -17 5 4 9 0 9 -8 0 -8 7 -18 16 -21 8 -3
13 -10 9 -15 -3 -5 0 -13 6 -17 6 -3 15 -1 19 6 6 10 15 8 39 -9 17 -13 29
-26 26 -31 -3 -5 -1 -11 5 -15 6 -4 7 -11 4 -17 -4 -7 -2 -8 4 -4 7 4 12 2 12
-5 0 -6 9 -1 19 12 14 18 16 27 9 37 -6 7 -13 10 -15 8 -3 -3 -17 6 -31 20
-15 13 -31 24 -37 24 -5 0 -3 4 5 10 8 5 11 12 7 16 -4 4 -13 0 -20 -9 -11
-15 -40 -10 -38 7 1 3 -2 6 -6 5 -5 -1 -7 -5 -5 -11 1 -5 -2 -7 -8 -3 -13 8
-13 11 8 31 16 16 16 17 0 11 -11 -4 -28 5 -50 25 -39 38 -58 41 -90 16z m52
3 c0 7 11 -1 23 -19 13 -17 26 -29 29 -26 4 3 9 1 12 -4 3 -6 -1 -9 -10 -8 -9
1 -21 10 -26 19 -5 10 -13 15 -17 12 -5 -2 -17 5 -27 18 -16 18 -16 19 -1 8
14 -11 17 -11 17 0z m105 -100 c3 -5 2 -12 -3 -15 -5 -3 -9 1 -9 9 0 17 3 19
12 6z m110 -61 c14 4 15 -8 2 -19 -11 -9 -17 -8 -27 4 -7 8 -9 15 -4 15 4 0
-3 12 -17 28 l-24 27 32 -28 c17 -16 34 -28 38 -27z"/>
<path d="M1926 788 c3 -5 10 -6 15 -3 13 9 11 12 -6 12 -8 0 -12 -4 -9 -9z"/>
<path d="M2119 714 c-6 -7 -15 -12 -19 -9 -4 3 -14 -3 -21 -13 -7 -9 -9 -14
-5 -10 5 5 15 -1 23 -12 8 -11 20 -20 26 -20 7 0 4 5 -5 11 -10 5 -18 15 -18
21 0 7 4 7 13 -1 8 -6 17 -8 20 -4 4 3 13 0 21 -6 10 -8 16 -9 21 -1 3 5 3 10
-2 10 -4 0 -3 4 4 8 8 5 2 13 -17 24 -25 14 -31 14 -41 2z m43 -19 c2 3 5 -2
5 -10 0 -10 -4 -12 -13 -4 -6 5 -16 9 -20 8 -21 -4 -26 2 -13 17 12 14 14 14
24 0 7 -9 14 -14 17 -11z"/>
<path d="M2230 674 c-7 -7 -17 -11 -24 -7 -6 3 9 -12 34 -34 30 -27 49 -38 56
-32 7 6 16 4 23 -5 7 -8 21 -13 31 -11 12 2 26 -5 35 -17 17 -25 27 -19 31 18
3 25 2 25 -17 8 -19 -17 -21 -15 -23 20 -1 11 -8 21 -16 24 -12 4 -13 2 -3 -9
6 -8 8 -20 4 -27 -6 -9 -12 -7 -26 8 -14 15 -21 17 -32 9 -10 -9 -13 -8 -13 1
0 7 -7 10 -14 7 -10 -4 -13 -1 -9 8 3 8 9 12 14 9 17 -10 9 3 -15 24 -21 18
-26 19 -36 6z m26 -30 c2 -12 -1 -13 -12 -3 -7 6 -11 16 -8 21 7 11 17 3 20
-18z m75 -41 c13 -16 12 -17 -3 -4 -10 7 -18 15 -18 17 0 8 8 3 21 -13z"/>
<path d="M5637 1276 c-4 -9 -11 -15 -16 -11 -5 3 -12 -3 -16 -14 -3 -11 -17
-27 -31 -36 -13 -9 -22 -20 -20 -24 3 -5 -5 -20 -19 -35 -13 -14 -19 -26 -14
-26 6 0 7 -5 3 -11 -4 -8 -9 -7 -15 2 -4 7 -6 16 -3 20 2 4 -5 7 -16 6 -25 -2
-25 -6 -2 -23 13 -11 13 -13 2 -11 -8 2 -11 2 -7 -1 4 -2 2 -11 -5 -20 -12
-15 -11 -16 6 -2 27 21 49 22 41 2 -4 -11 2 -9 19 7 15 14 26 27 26 30 0 3 -5
0 -12 -7 -25 -25 -28 -10 -4 19 14 17 24 35 20 40 -5 8 9 13 28 10 4 0 5 8 3
19 -2 10 3 24 11 31 9 7 14 8 14 1 0 -6 13 1 28 16 28 27 34 45 8 23 -11 -9
-15 -9 -18 1 -3 8 -7 6 -11 -6z m-77 -115 c-5 -11 -15 -23 -21 -27 -6 -3 -3 5
6 20 20 30 30 35 15 7z"/>
<path d="M5506 1158 c3 -4 9 -8 15 -8 5 0 9 4 9 8 0 5 -7 9 -15 9 -8 0 -12 -4
-9 -9z"/>
<path d="M5449 1053 c-13 -16 -12 -17 4 -4 16 13 21 21 13 21 -2 0 -10 -8 -17
-17z"/>
<path d="M3834 356 c-10 -8 -17 -16 -14 -19 3 -2 14 4 24 14 23 22 18 25 -10
5z"/>
<path d="M3890 360 c0 -5 5 -10 11 -10 5 0 7 5 4 10 -3 6 -8 10 -11 10 -2 0
-4 -4 -4 -10z"/>
<path d="M3515 329 c-3 -4 2 -6 10 -5 21 3 28 13 10 13 -9 0 -18 -4 -20 -8z"/>
<path d="M6293 4825 c0 -8 4 -12 9 -9 5 3 6 10 3 15 -9 13 -12 11 -12 -6z"/>
<path d="M6346 4682 c-3 -5 1 -9 9 -9 8 0 12 4 9 9 -3 4 -7 8 -9 8 -2 0 -6 -4
-9 -8z"/>
<path d="M574 4542 c4 -3 14 -7 22 -8 9 -1 13 0 10 4 -4 3 -14 7 -22 8 -9 1
-13 0 -10 -4z"/>
<path d="M519 4393 c-13 -16 -12 -17 4 -4 9 7 17 15 17 17 0 8 -8 3 -21 -13z"/>
<path d="M516 4362 c-3 -5 1 -9 9 -9 8 0 12 4 9 9 -3 4 -7 8 -9 8 -2 0 -6 -4
-9 -8z"/>
<path d="M6495 4349 c-4 -6 -5 -12 -2 -15 2 -3 7 2 10 11 7 17 1 20 -8 4z"/>
<path d="M6530 4221 c0 -6 4 -13 10 -16 6 -3 7 1 4 9 -7 18 -14 21 -14 7z"/>
<path d="M6516 4153 c-6 -14 -5 -15 5 -6 7 7 10 15 7 18 -3 3 -9 -2 -12 -12z"/>
<path d="M6546 4122 c-3 -5 1 -9 9 -9 8 0 12 4 9 9 -3 4 -7 8 -9 8 -2 0 -6 -4
-9 -8z"/>
<path d="M416 4073 c-6 -14 -5 -15 5 -6 7 7 10 15 7 18 -3 3 -9 -2 -12 -12z"/>
<path d="M436 3982 c-2 -4 -1 -14 4 -22 7 -11 9 -9 7 8 -1 24 -3 26 -11 14z"/>
<path d="M415 3929 c-4 -6 -5 -12 -2 -15 2 -3 7 2 10 11 7 17 1 20 -8 4z"/>
<path d="M6540 3933 c0 -19 21 -27 33 -13 9 10 9 11 -2 5 -8 -4 -17 -2 -22 6
-6 9 -9 10 -9 2z"/>
<path d="M433 3875 c0 -8 4 -12 9 -9 5 3 6 10 3 15 -9 13 -12 11 -12 -6z"/>
<path d="M6615 3869 c-4 -6 -5 -12 -2 -15 2 -3 7 2 10 11 7 17 1 20 -8 4z"/>
<path d="M6571 3834 c0 -11 3 -14 6 -6 3 7 2 16 -1 19 -3 4 -6 -2 -5 -13z"/>
<path d="M375 3821 c-3 -5 -2 -12 3 -15 5 -3 9 1 9 9 0 17 -3 19 -12 6z"/>
<path d="M6593 3795 c0 -8 4 -12 9 -9 5 3 6 10 3 15 -9 13 -12 11 -12 -6z"/>
<path d="M370 3780 c0 -5 5 -10 11 -10 5 0 7 5 4 10 -3 6 -8 10 -11 10 -2 0
-4 -4 -4 -10z"/>
<path d="M6593 3763 c4 -3 1 -13 -6 -22 -11 -14 -10 -14 6 -2 20 15 22 31 5
31 -6 0 -8 -3 -5 -7z"/>
<path d="M413 3725 c0 -8 4 -12 9 -9 5 3 6 10 3 15 -9 13 -12 11 -12 -6z"/>
<path d="M6590 3659 c0 -5 5 -7 10 -4 6 3 10 8 10 11 0 2 -4 4 -10 4 -5 0 -10
-5 -10 -11z"/>
<path d="M6613 3633 c0 -9 4 -10 14 -2 7 6 13 12 13 14 0 1 -6 2 -13 2 -8 0
-14 -6 -14 -14z"/>
<path d="M404 3619 c-3 -6 -1 -16 5 -22 9 -9 10 -7 5 7 -6 15 -4 17 6 11 9 -5
11 -4 6 3 -9 15 -13 15 -22 1z"/>
<path d="M350 3601 c0 -6 4 -13 10 -16 6 -3 7 1 4 9 -7 18 -14 21 -14 7z"/>
<path d="M366 3562 c-3 -5 1 -9 9 -9 8 0 12 4 9 9 -3 4 -7 8 -9 8 -2 0 -6 -4
-9 -8z"/>
<path d="M408 3563 c6 -2 9 -10 6 -15 -4 -7 -2 -8 5 -4 13 9 5 26 -12 25 -9 0
-8 -2 1 -6z"/>
<path d="M6588 3543 c10 -4 10 -8 1 -19 -7 -8 -9 -17 -5 -21 3 -3 6 -1 6 6 0
7 5 9 13 5 6 -4 9 -4 5 1 -4 4 -4 13 2 19 6 8 2 12 -13 13 -12 0 -16 -1 -9 -4z"/>
<path d="M394 3520 c0 -13 4 -16 10 -10 7 7 7 13 0 20 -6 6 -10 3 -10 -10z"/>
<path d="M356 3498 c3 -5 10 -6 15 -3 13 9 11 12 -6 12 -8 0 -12 -4 -9 -9z"/>
<path d="M416 3462 c-5 -9 -2 -39 5 -46 3 -3 5 8 4 24 0 32 -1 35 -9 22z"/>
<path d="M6575 3460 c-3 -5 -1 -10 4 -10 6 0 11 5 11 10 0 6 -2 10 -4 10 -3 0
-8 -4 -11 -10z"/>
<path d="M6590 3410 c-19 -14 -22 -22 -14 -30 9 -9 14 -9 19 1 5 8 4 10 -3 5
-21 -13 -13 5 11 25 29 24 19 24 -13 -1z"/>
<path d="M375 3411 c-3 -5 -2 -12 3 -15 5 -3 9 1 9 9 0 17 -3 19 -12 6z"/>
<path d="M330 3406 c0 -2 7 -7 16 -10 8 -3 12 -2 9 4 -6 10 -25 14 -25 6z"/>
<path d="M400 3400 c0 -5 5 -10 11 -10 5 0 7 5 4 10 -3 6 -8 10 -11 10 -2 0
-4 -4 -4 -10z"/>
<path d="M370 3377 c0 -2 6 -10 14 -16 11 -9 16 -9 22 1 4 7 4 10 -1 6 -4 -4
-14 -3 -22 3 -7 6 -13 9 -13 6z"/>
<path d="M341 3356 c-9 -11 -9 -16 1 -22 7 -4 10 -4 6 1 -4 4 -3 14 3 22 6 7
9 13 6 13 -2 0 -10 -6 -16 -14z"/>
<path d="M416 3353 c-6 -14 -5 -15 5 -6 7 7 10 15 7 18 -3 3 -9 -2 -12 -12z"/>
<path d="M6592 3330 c-27 -26 -27 -24 2 -44 16 -10 27 -12 31 -6 4 6 3 10 -2
9 -4 -1 -16 1 -26 6 -17 7 -17 9 4 31 27 29 21 32 -9 4z"/>
<path d="M391 3294 c7 -8 6 -14 -3 -17 -10 -4 -10 -6 0 -6 7 -1 15 6 18 14 4
8 11 12 18 8 6 -3 8 -2 3 2 -4 5 -16 9 -27 10 -15 1 -17 -2 -9 -11z"/>
<path d="M330 3286 c0 -2 7 -7 16 -10 8 -3 12 -2 9 4 -6 10 -25 14 -25 6z"/>
<path d="M404 3259 c-4 -7 -3 -9 4 -5 5 3 13 0 15 -6 4 -9 6 -10 6 -1 1 17
-16 25 -25 12z"/>
<path d="M6586 3257 c3 -10 9 -15 12 -12 3 3 0 11 -7 18 -10 9 -11 8 -5 -6z"/>
<path d="M340 3240 c-9 -6 -10 -10 -3 -10 6 0 15 5 18 10 8 12 4 12 -15 0z"/>
<path d="M415 3221 c-6 -11 13 -26 22 -17 4 3 1 6 -6 6 -7 0 -9 5 -6 10 3 6 4
10 1 10 -3 0 -7 -4 -11 -9z"/>
<path d="M6591 3218 c3 -28 -1 -39 -13 -32 -7 4 -10 3 -5 -1 12 -13 48 -14 38
-1 -5 6 -7 19 -6 29 2 9 -1 17 -6 17 -6 0 -9 -6 -8 -12z"/>
<path d="M6655 3200 c-3 -5 -1 -10 4 -10 6 0 11 5 11 10 0 6 -2 10 -4 10 -3 0
-8 -4 -11 -10z"/>
<path d="M419 3188 c0 -2 -2 -16 -3 -31 -2 -26 -1 -27 11 -10 9 11 10 19 3 21
-5 2 -8 8 -4 13 3 5 3 9 0 9 -3 0 -6 -1 -7 -2z"/>
<path d="M6559 3168 c-8 -32 -7 -48 3 -48 6 0 8 3 5 7 -4 3 -2 12 4 19 7 8 7
14 -1 19 -5 3 -10 5 -11 3z"/>
<path d="M389 3143 c-13 -16 -12 -17 4 -4 9 7 17 15 17 17 0 8 -8 3 -21 -13z"/>
<path d="M420 3119 c-12 -8 -9 -9 10 -4 24 6 24 5 6 -9 -11 -9 -15 -16 -9 -16
14 0 34 25 26 33 -9 9 -15 9 -33 -4z"/>
<path d="M6615 3120 c3 -5 8 -10 11 -10 2 0 4 5 4 10 0 6 -5 10 -11 10 -5 0
-7 -4 -4 -10z"/>
<path d="M376 3102 c-3 -4 4 -9 15 -9 23 -2 25 3 4 10 -8 4 -16 3 -19 -1z"/>
<path d="M401 3056 c-8 -10 -9 -16 -1 -21 6 -4 9 -1 8 7 -2 7 3 12 10 10 8 -1
11 2 7 8 -8 13 -10 13 -24 -4z"/>
<path d="M6546 3042 c-3 -5 1 -9 9 -9 8 0 15 4 15 9 0 4 -4 8 -9 8 -6 0 -12
-4 -15 -8z"/>
<path d="M451 3003 c-1 -12 4 -25 9 -28 12 -7 12 2 0 30 -8 19 -9 19 -9 -2z"/>
<path d="M6551 3004 c0 -11 3 -14 6 -6 3 7 2 16 -1 19 -3 4 -6 -2 -5 -13z"/>
<path d="M6575 2991 c-3 -5 -2 -12 3 -15 5 -3 9 1 9 9 0 17 -3 19 -12 6z"/>
<path d="M421 2964 c0 -11 3 -14 6 -6 3 7 2 16 -1 19 -3 4 -6 -2 -5 -13z"/>
<path d="M448 2958 c11 -14 10 -17 -5 -21 -15 -4 -15 -5 -2 -6 9 0 23 7 30 17
7 9 9 14 5 10 -5 -4 -16 -2 -25 5 -14 10 -14 10 -3 -5z"/>
<path d="M390 2946 c0 -2 7 -7 16 -10 8 -3 12 -2 9 4 -6 10 -25 14 -25 6z"/>
<path d="M6550 2940 c0 -5 5 -10 10 -10 6 0 10 5 10 10 0 6 -4 10 -10 10 -5 0
-10 -4 -10 -10z"/>
<path d="M6613 2911 c0 -11 5 -18 9 -15 4 3 5 11 1 19 -7 21 -12 19 -10 -4z"/>
<path d="M399 2893 c-13 -16 -12 -17 4 -4 9 7 17 15 17 17 0 8 -8 3 -21 -13z"/>
<path d="M433 2845 c0 -8 4 -12 9 -9 5 3 6 10 3 15 -9 13 -12 11 -12 -6z"/>
<path d="M6540 2840 c-8 -5 -10 -10 -5 -10 6 0 17 5 25 10 8 5 11 10 5 10 -5
0 -17 -5 -25 -10z"/>
<path d="M433 2806 c0 -7 6 -13 14 -13 7 0 13 4 13 8 0 4 -6 9 -13 12 -8 3
-14 0 -14 -7z"/>
<path d="M476 2808 c3 -5 10 -6 15 -3 13 9 11 12 -6 12 -8 0 -12 -4 -9 -9z"/>
<path d="M6556 2795 c-11 -8 -15 -15 -9 -15 6 0 16 7 23 15 16 19 11 19 -14 0z"/>
<path d="M470 2780 c0 -5 5 -10 12 -10 9 0 9 -3 0 -12 -7 -7 -12 -16 -12 -22
0 -5 6 -1 14 9 8 11 12 25 9 32 -6 15 -23 17 -23 3z"/>
<path d="M6536 2758 c3 -4 11 -5 19 -1 21 7 19 12 -4 10 -11 0 -18 -5 -15 -9z"/>
<path d="M491 2734 c-12 -14 -16 -24 -9 -23 26 3 39 -1 33 -11 -4 -6 -11 -8
-16 -4 -6 3 -5 -3 3 -15 7 -11 19 -23 27 -26 11 -5 11 -2 -2 13 -13 14 -14 21
-5 30 9 9 7 13 -5 18 -13 5 -14 10 -6 25 14 26 7 24 -20 -7z"/>
<path d="M6490 2743 c0 -4 5 -15 10 -23 8 -13 10 -13 10 2 0 9 -4 20 -10 23
-5 3 -10 3 -10 -2z"/>
<path d="M6510 2693 c5 -2 8 -9 5 -13 -3 -5 -1 -11 4 -14 5 -4 8 2 7 11 -2 9
-8 18 -15 19 -6 1 -7 0 -1 -3z"/>
<path d="M470 2665 c-11 -13 -10 -14 4 -9 9 3 16 10 16 15 0 13 -6 11 -20 -6z"/>
<path d="M510 2635 c14 -8 30 -14 35 -14 6 0 -1 6 -15 14 -14 8 -29 14 -35 14
-5 0 1 -6 15 -14z"/>
<path d="M484 2619 c-3 -6 -1 -16 5 -22 9 -9 10 -7 5 7 -6 15 -4 17 6 11 9 -5
11 -4 6 3 -9 15 -13 15 -22 1z"/>
<path d="M6470 2620 c0 -5 5 -10 10 -10 6 0 10 5 10 10 0 6 -4 10 -10 10 -5 0
-10 -4 -10 -10z"/>
<path d="M6550 2619 c0 -5 5 -7 10 -4 6 3 10 8 10 11 0 2 -4 4 -10 4 -5 0 -10
-5 -10 -11z"/>
<path d="M6476 2587 c3 -10 9 -15 12 -12 3 3 0 11 -7 18 -10 9 -11 8 -5 -6z"/>
<path d="M455 2580 c3 -5 8 -10 11 -10 2 0 4 5 4 10 0 6 -5 10 -11 10 -5 0 -7
-4 -4 -10z"/>
<path d="M530 2571 c0 -7 -4 -9 -10 -6 -6 4 -7 -1 -3 -11 6 -15 7 -15 15 1 6
9 7 19 4 22 -3 4 -6 1 -6 -6z"/>
<path d="M6494 2558 c-4 -7 -4 -10 1 -6 4 4 15 2 24 -5 14 -11 14 -10 2 6 -16
20 -18 21 -27 5z"/>
<path d="M6429 2538 c-1 -2 -2 -16 -3 -31 l-2 -28 17 23 c17 22 17 38 -2 38
-5 0 -10 -1 -10 -2z m21 -12 c0 -3 -4 -8 -10 -11 -5 -3 -10 -1 -10 4 0 6 5 11
10 11 6 0 10 -2 10 -4z"/>
<path d="M6491 2528 c-1 -20 14 -24 25 -6 4 6 3 8 -4 4 -5 -3 -13 0 -15 6 -3
8 -6 6 -6 -4z"/>
<path d="M460 2526 c0 -2 8 -10 18 -17 15 -13 16 -12 3 4 -13 16 -21 21 -21
13z"/>
<path d="M496 2518 c3 -5 10 -6 15 -3 13 9 11 12 -6 12 -8 0 -12 -4 -9 -9z"/>
<path d="M530 2526 c0 -2 7 -7 16 -10 8 -3 12 -2 9 4 -6 10 -25 14 -25 6z"/>
<path d="M515 2501 c-3 -5 0 -13 6 -17 8 -5 9 -3 4 6 -6 10 -4 12 9 7 10 -4
15 -3 11 3 -8 13 -22 13 -30 1z"/>
<path d="M6450 2489 c-7 -11 -9 -23 -6 -27 3 -3 6 0 6 7 0 7 4 9 10 6 6 -4 7
1 3 12 -6 16 -5 17 13 3 18 -14 18 -14 5 3 -17 22 -18 21 -31 -4z"/>
<path d="M552 2485 c-8 -10 -9 -15 -2 -15 6 0 8 -4 5 -10 -3 -5 -2 -10 3 -10
5 0 10 11 10 25 0 14 -1 25 -2 25 0 -1 -7 -7 -14 -15z"/>
<path d="M6515 2471 c-3 -5 -2 -12 3 -15 5 -3 9 1 9 9 0 17 -3 19 -12 6z"/>
<path d="M515 2461 c-3 -5 -2 -12 3 -15 5 -3 9 1 9 9 0 17 -3 19 -12 6z"/>
<path d="M6420 2467 c0 -16 21 -47 33 -47 8 0 9 3 1 8 -6 4 -16 16 -22 27 -6
11 -12 16 -12 12z"/>
<path d="M533 2423 c4 -3 1 -13 -6 -22 -11 -14 -10 -14 5 -2 16 12 16 31 1 31
-4 0 -3 -3 0 -7z"/>
<path d="M6457 2391 c-10 -14 -10 -14 4 -4 9 7 18 10 21 7 3 -3 8 -1 12 4 9
16 -24 9 -37 -7z"/>
<path d="M495 2380 c-3 -5 -1 -10 4 -10 6 0 11 5 11 10 0 6 -2 10 -4 10 -3 0
-8 -4 -11 -10z"/>
<path d="M6439 2353 c-6 -7 -16 -10 -23 -6 -6 3 -7 2 -3 -2 12 -13 37 -15 34
-2 -1 6 3 11 10 12 17 0 25 12 8 12 -8 0 -20 -6 -26 -14z"/>
<path d="M593 2340 c2 -8 0 -23 -5 -32 -5 -10 -6 -18 -4 -18 13 0 24 37 15 51
-9 12 -10 12 -6 -1z"/>
<path d="M6380 2326 c0 -2 7 -6 15 -10 8 -3 15 -1 15 4 0 6 -7 10 -15 10 -8 0
-15 -2 -15 -4z"/>
<path d="M533 2275 c0 -8 4 -12 9 -9 5 3 6 10 3 15 -9 13 -12 11 -12 -6z"/>
<path d="M6373 2245 c-3 -9 -3 -18 -1 -21 3 -3 8 4 11 16 6 23 -1 27 -10 5z"/>
<path d="M6304 2225 c-10 -8 -14 -15 -7 -15 6 0 10 -11 9 -25 -2 -14 3 -30 10
-36 10 -8 12 -6 9 10 -3 12 -7 30 -9 41 -3 11 -1 22 5 25 9 6 13 -7 10 -32 -2
-17 16 -25 25 -12 5 8 3 9 -6 4 -9 -5 -10 -2 -6 12 9 30 -15 47 -40 28z"/>
<path d="M610 2201 c0 -6 4 -13 10 -16 6 -3 7 1 4 9 -7 18 -14 21 -14 7z"/>
<path d="M6360 2206 c0 -2 8 -10 18 -17 15 -13 16 -12 3 4 -13 16 -21 21 -21
13z"/>
<path d="M570 2186 c0 -2 7 -7 16 -10 8 -3 12 -2 9 4 -6 10 -25 14 -25 6z"/>
<path d="M655 2170 c6 -10 4 -12 -8 -7 -10 3 -17 2 -17 -3 0 -13 27 -13 35 -1
3 5 0 13 -6 17 -8 5 -9 3 -4 -6z"/>
<path d="M6350 2160 c-13 -8 -12 -10 3 -10 9 0 17 5 17 10 0 12 -1 12 -20 0z"/>
<path d="M6263 2144 c0 -10 4 -11 14 -3 9 8 13 8 13 1 0 -6 -4 -13 -9 -16 -11
-7 9 -56 23 -56 4 0 1 11 -7 24 -15 23 -13 36 5 36 5 0 6 -4 3 -10 -7 -11 8
-14 18 -3 7 7 -30 36 -49 39 -6 1 -11 -4 -11 -12z"/>
<path d="M6243 2108 c-8 -11 -9 -22 -4 -43 0 -3 10 -1 21 5 24 13 17 32 -8 23
-15 -6 -15 -5 -3 10 7 9 11 17 8 17 -2 0 -9 -6 -14 -12z"/>
<path d="M615 2101 c-4 -7 -1 -10 7 -9 7 2 12 -5 11 -16 -1 -13 2 -15 10 -7 8
8 7 15 -5 27 -11 11 -18 13 -23 5z"/>
<path d="M690 2101 c0 -6 4 -11 10 -11 5 0 7 -7 3 -15 -5 -14 -8 -14 -27 2
l-21 18 19 -22 c23 -28 23 -28 35 -4 8 14 7 22 -4 31 -11 9 -15 9 -15 1z"/>
<path d="M6320 2100 c-9 -6 -10 -10 -3 -10 6 0 15 5 18 10 8 12 4 12 -15 0z"/>
<path d="M753 2053 c-7 -2 -2 -14 13 -30 13 -14 22 -29 18 -32 -3 -3 -14 5
-25 18 -11 13 -21 22 -23 20 -7 -7 18 -35 42 -48 39 -21 51 3 22 45 -18 25
-31 33 -47 27z m37 -28 c13 -14 19 -25 14 -25 -8 1 -50 50 -41 50 2 0 14 -11
27 -25z"/>
<path d="M6247 2040 c-18 -21 -12 -26 13 -10 8 5 11 10 5 11 -5 0 1 5 15 9 21
7 22 8 5 9 -11 1 -28 -8 -38 -19z"/>
<path d="M6356 2047 c3 -10 9 -15 12 -12 3 3 0 11 -7 18 -10 9 -11 8 -5 -6z"/>
<path d="M6300 2040 c-9 -6 -10 -10 -3 -10 6 0 15 5 18 10 8 12 4 12 -15 0z"/>
<path d="M6270 2009 c0 -5 -4 -7 -10 -4 -6 4 -7 -1 -3 -11 4 -11 8 -13 11 -6
2 7 8 10 13 7 5 -4 6 1 3 9 -7 18 -14 21 -14 5z"/>
<path d="M6340 2006 c0 -2 8 -10 18 -17 15 -13 16 -12 3 4 -13 16 -21 21 -21
13z"/>
<path d="M6315 1989 c-4 -6 -5 -12 -2 -15 2 -3 7 2 10 11 7 17 1 20 -8 4z"/>
<path d="M710 1986 c0 -2 9 -6 20 -9 11 -3 18 -1 14 4 -5 9 -34 13 -34 5z"/>
<path d="M6225 1977 c-11 -7 -27 -13 -35 -12 -13 0 -55 -41 -55 -55 0 -3 -4
-11 -8 -17 -5 -7 -5 -13 -1 -13 4 0 -5 -10 -20 -21 -15 -12 -25 -24 -21 -27 3
-3 -7 -18 -22 -34 -15 -15 -23 -28 -18 -28 5 0 -1 -10 -12 -22 -23 -26 -26
-55 -7 -62 7 -3 11 0 8 7 -5 15 33 20 41 6 4 -5 10 -9 16 -9 5 0 0 9 -11 20
-11 11 -20 26 -20 33 1 6 10 1 21 -12 11 -13 22 -22 24 -19 3 3 -1 11 -9 17
-15 13 -13 19 20 54 9 9 7 15 -10 25 -20 12 -20 12 5 6 16 -3 30 0 38 10 7 8
20 12 29 9 14 -4 14 -3 3 5 -11 8 -21 6 -35 -4 -26 -18 -37 -18 -30 1 3 8 11
13 17 12 7 -1 12 7 12 17 0 11 6 21 14 24 8 3 11 0 8 -6 -4 -5 -1 -14 6 -20
14 -11 48 -12 41 -1 -2 5 -11 6 -20 2 -8 -3 -14 -2 -12 3 1 5 -3 19 -10 31
-11 19 -9 24 8 33 11 6 20 7 20 2 0 -4 6 -16 13 -26 12 -17 14 -17 28 1 13 17
13 17 -5 3 -18 -14 -19 -13 -13 3 4 10 3 16 -2 13 -5 -3 -11 0 -14 8 -6 16 11
36 30 36 7 0 13 5 13 10 0 13 -2 13 -25 -3z m-48 -38 c-15 -11 -25 -24 -22
-29 3 -4 -3 -14 -13 -21 -15 -12 -16 -12 -5 2 7 9 10 18 7 21 -5 6 44 48 55
48 3 0 -6 -10 -22 -21z m-63 -94 c-4 -8 -11 -15 -16 -15 -6 0 -5 6 2 15 7 8
14 15 16 15 2 0 1 -7 -2 -15z m-11 -48 c7 4 4 -4 -5 -17 -9 -14 -21 -24 -26
-23 -6 1 -16 -4 -22 -12 -9 -11 -10 -15 -1 -15 7 0 9 -5 5 -11 -4 -8 -9 -7
-15 2 -7 12 -9 12 -9 0 0 -8 -3 -11 -7 -8 -3 4 4 18 17 32 13 14 20 25 15 25
-4 0 0 9 11 21 10 11 20 16 22 10 2 -6 9 -8 15 -4z"/>
<path d="M6065 1781 c-3 -5 0 -13 6 -17 7 -4 9 -3 5 4 -3 5 0 13 6 15 9 4 10
6 1 6 -6 1 -14 -3 -18 -8z"/>
<path d="M763 1955 c0 -8 4 -12 9 -9 4 3 8 9 8 15 0 5 -4 9 -8 9 -5 0 -9 -7
-9 -15z"/>
<path d="M824 1958 c3 -9 -2 -19 -11 -22 -11 -5 -14 -2 -9 11 5 16 5 16 -8 0
-13 -16 -12 -23 7 -55 20 -34 20 -35 2 -28 -16 6 -18 5 -7 -5 10 -11 16 -10
30 5 9 11 12 16 6 13 -12 -7 -37 37 -27 47 10 10 25 7 18 -3 -3 -5 2 -17 12
-26 20 -20 26 -58 8 -51 -7 2 -18 0 -26 -5 -12 -8 -12 -10 1 -8 30 3 41 -1 34
-13 -6 -10 -4 -10 7 0 21 19 34 14 16 -6 -16 -17 -16 -19 8 -32 13 -7 22 -17
19 -22 -3 -5 0 -7 7 -6 6 2 14 -3 16 -10 3 -7 -1 -10 -10 -6 -8 3 -18 0 -22
-5 -3 -6 -12 -8 -18 -5 -7 4 -8 3 -4 -2 5 -5 12 -9 15 -10 4 0 16 -4 26 -9 13
-6 23 -3 31 8 16 22 20 21 22 -3 1 -11 -1 -19 -5 -19 -27 4 -34 -1 -21 -17 12
-14 14 -14 25 1 7 9 15 12 18 7 6 -10 -8 -25 -34 -36 -8 -3 -5 -4 8 -2 19 4
22 1 16 -16 -4 -14 -2 -18 5 -14 6 4 11 14 11 22 0 8 4 14 9 14 12 0 9 -18 -8
-50 -11 -22 -9 -21 12 5 22 27 26 28 43 15 18 -14 18 -14 5 3 -7 9 -10 17 -5
17 5 0 2 5 -6 10 -8 5 -15 13 -15 17 -1 13 -21 45 -28 44 -25 -3 -28 0 -16 16
10 11 10 14 2 9 -8 -4 -13 -2 -13 5 0 8 -4 8 -15 -1 -14 -12 -15 -10 -12 11 3
14 -1 33 -9 44 -9 11 -14 14 -14 6 0 -11 -3 -11 -15 -1 -10 8 -12 17 -6 24 16
19 12 30 -27 69 -20 21 -35 39 -33 40 3 1 -1 11 -8 22 -8 13 -11 14 -7 3z m73
-111 c0 -7 -8 -13 -17 -13 -10 0 -16 8 -14 21 1 11 -8 31 -20 45 -12 15 -6 11
15 -8 20 -18 36 -38 36 -45z m31 -69 c3 1 7 -4 8 -12 2 -12 -5 -10 -27 6 -16
12 -29 26 -29 31 0 6 9 2 21 -9 12 -10 24 -18 27 -16z m12 -60 c0 -11 -28 -10
-35 1 -3 6 4 9 15 8 11 -1 20 -5 20 -9z m76 -45 c-3 -4 -1 -12 5 -19 7 -8 7
-14 -1 -19 -6 -4 -9 -1 -8 7 2 8 -5 12 -17 11 -18 -1 -18 0 -3 10 15 10 15 12
0 25 -15 11 -14 12 6 2 13 -7 21 -14 18 -17z"/>
<path d="M6320 1960 c-9 -6 -10 -10 -3 -10 6 0 15 5 18 10 8 12 4 12 -15 0z"/>
<path d="M735 1949 c-4 -6 -5 -12 -2 -15 2 -3 7 2 10 11 7 17 1 20 -8 4z"/>
<path d="M6269 1943 c-13 -16 -12 -17 4 -4 16 13 21 21 13 21 -2 0 -10 -8 -17
-17z"/>
<path d="M6220 1946 c0 -2 7 -7 16 -10 8 -3 12 -2 9 4 -6 10 -25 14 -25 6z"/>
<path d="M6307 1919 c7 -7 15 -10 18 -7 3 3 -2 9 -12 12 -14 6 -15 5 -6 -5z"/>
<path d="M6180 1913 c0 -6 8 -17 18 -24 16 -13 16 -13 2 6 -8 11 -16 22 -17
24 -2 2 -3 0 -3 -6z"/>
<path d="M748 1899 c6 -9 9 -18 6 -22 -3 -3 2 -4 12 -3 21 3 30 21 15 31 -7 4
-8 -1 -4 -12 6 -16 4 -16 -18 2 -13 11 -18 13 -11 4z"/>
<path d="M6255 1880 c3 -5 8 -10 11 -10 2 0 4 5 4 10 0 6 -5 10 -11 10 -5 0
-7 -4 -4 -10z"/>
<path d="M770 1856 c0 -2 8 -10 18 -17 15 -13 16 -12 3 4 -13 16 -21 21 -21
13z"/>
<path d="M736 1827 c3 -10 9 -15 12 -12 3 3 0 11 -7 18 -10 9 -11 8 -5 -6z"/>
<path d="M826 1803 c-6 -14 -5 -15 5 -6 7 7 10 15 7 18 -3 3 -9 -2 -12 -12z"/>
<path d="M6155 1810 c-3 -5 -1 -10 4 -10 6 0 11 5 11 10 0 6 -2 10 -4 10 -3 0
-8 -4 -11 -10z"/>
<path d="M6148 1783 c7 -3 16 -2 19 1 4 3 -2 6 -13 5 -11 0 -14 -3 -6 -6z"/>
<path d="M815 1769 c-4 -6 -5 -12 -2 -15 2 -3 7 2 10 11 7 17 1 20 -8 4z"/>
<path d="M6121 1773 c-1 -6 -4 -20 -7 -30 -5 -17 -5 -17 6 0 6 10 9 23 6 30
-3 9 -5 9 -5 0z"/>
<path d="M872 1756 c7 -8 15 -12 17 -11 5 6 -10 25 -20 25 -5 0 -4 -6 3 -14z"/>
<path d="M6135 1741 c-6 -11 13 -26 22 -17 4 3 1 6 -6 6 -7 0 -9 5 -6 10 3 6
4 10 1 10 -3 0 -7 -4 -11 -9z"/>
<path d="M816 1718 c3 -5 10 -6 15 -3 13 9 11 12 -6 12 -8 0 -12 -4 -9 -9z"/>
<path d="M6120 1700 c-9 -6 -10 -10 -3 -10 6 0 15 5 18 10 8 12 4 12 -15 0z"/>
<path d="M6154 1696 c1 -8 5 -18 8 -22 4 -3 5 1 4 10 -1 8 -5 18 -8 22 -4 3
-5 -1 -4 -10z"/>
<path d="M896 1687 c3 -10 9 -15 12 -12 3 3 0 11 -7 18 -10 9 -11 8 -5 -6z"/>
<path d="M895 1649 c-4 -6 -5 -12 -2 -15 2 -3 7 2 10 11 7 17 1 20 -8 4z"/>
<path d="M954 1602 c3 -5 0 -13 -6 -15 -8 -3 -6 -6 5 -6 19 -1 23 14 5 25 -6
4 -8 3 -4 -4z"/>
<path d="M5990 1560 c0 -5 5 -10 10 -10 6 0 10 5 10 10 0 6 -4 10 -10 10 -5 0
-10 -4 -10 -10z"/>
<path d="M6113 1555 c0 -8 4 -12 9 -9 5 3 6 10 3 15 -9 13 -12 11 -12 -6z"/>
<path d="M955 1541 c-3 -5 -2 -12 3 -15 5 -3 9 1 9 9 0 17 -3 19 -12 6z"/>
<path d="M984 1531 c0 -10 5 -18 11 -18 7 0 12 6 12 13 0 7 -5 15 -12 17 -6 3
-11 -3 -11 -12z"/>
<path d="M6025 1520 c10 -11 20 -20 23 -20 3 0 -3 9 -13 20 -10 11 -20 20 -23
20 -3 0 3 -9 13 -20z"/>
<path d="M1020 1500 c-8 -5 -10 -10 -5 -10 6 0 17 5 25 10 8 5 11 10 5 10 -5
0 -17 -5 -25 -10z"/>
<path d="M5954 1495 c-4 -8 -10 -12 -15 -9 -5 3 -6 -2 -3 -11 7 -18 7 -18 23
13 6 12 9 22 6 22 -3 0 -8 -7 -11 -15z"/>
<path d="M5975 1491 c-3 -5 -2 -12 3 -15 5 -3 9 1 9 9 0 17 -3 19 -12 6z"/>
<path d="M1046 1475 c4 -8 8 -15 10 -15 2 0 4 7 4 15 0 8 -4 15 -10 15 -5 0
-7 -7 -4 -15z"/>
<path d="M1150 1477 c0 -6 -8 -20 -17 -31 -17 -20 -17 -20 0 -7 20 15 23 2 5
-18 -11 -11 -10 -12 1 -6 11 6 13 4 8 -8 -4 -10 -2 -17 4 -17 6 0 9 9 6 20 -3
13 0 20 9 20 8 0 14 5 14 10 0 6 12 -1 27 -15 15 -14 32 -25 38 -25 5 0 -1 7
-13 16 -12 8 -19 20 -16 26 4 6 2 8 -3 5 -12 -7 -32 12 -30 27 1 5 -6 10 -15
12 -10 1 -18 -3 -18 -9z m25 -14 c-2 -10 -4 -19 -4 -21 -1 -2 -6 0 -11 3 -8 5
-7 11 1 21 15 18 18 18 14 -3z"/>
<path d="M5917 1463 c-4 -3 -7 -11 -7 -17 0 -6 5 -5 12 2 6 6 9 14 7 17 -3 3
-9 2 -12 -2z"/>
<path d="M5996 1453 c-6 -14 -5 -15 5 -6 7 7 10 15 7 18 -3 3 -9 -2 -12 -12z"/>
<path d="M5895 1419 c-4 -6 -4 -13 -1 -16 3 -4 6 -1 6 6 0 7 5 9 12 5 7 -4 8
-3 4 4 -9 15 -13 15 -21 1z"/>
<path d="M1111 1410 c0 -8 4 -22 9 -30 12 -18 12 -2 0 25 -6 13 -9 15 -9 5z"/>
<path d="M5863 1402 c10 -10 14 -22 10 -25 -3 -4 -1 -7 5 -7 7 0 12 3 12 8 -1
11 -26 42 -35 42 -5 0 -1 -8 8 -18z"/>
<path d="M1055 1380 c3 -5 8 -10 11 -10 2 0 4 5 4 10 0 6 -5 10 -11 10 -5 0
-7 -4 -4 -10z"/>
<path d="M5821 1384 c-1 -5 6 -19 15 -30 8 -10 12 -13 8 -5 -5 11 -3 13 10 8
10 -4 15 -3 11 3 -3 6 -12 10 -20 10 -7 0 -16 6 -18 13 -3 6 -6 7 -6 1z"/>
<path d="M1160 1376 c0 -2 7 -7 16 -10 8 -3 12 -2 9 4 -6 10 -25 14 -25 6z"/>
<path d="M1136 1351 c-4 -5 3 -7 14 -4 23 6 26 13 6 13 -8 0 -17 -4 -20 -9z"/>
<path d="M1153 1313 c0 -11 7 -20 14 -20 10 0 10 4 1 16 -7 9 -13 18 -15 20
-1 2 -1 -5 0 -16z"/>
<path d="M5788 1323 c6 -2 12 -9 12 -14 0 -6 -4 -8 -9 -5 -9 6 -41 -35 -41
-51 0 -4 8 4 18 18 9 15 25 25 34 23 15 -2 16 1 8 17 -6 10 -16 19 -23 18 -9
0 -9 -2 1 -6z"/>
<path d="M1193 1287 c0 -8 6 -14 13 -14 7 0 10 6 7 14 -3 7 -8 13 -12 13 -4 0
-8 -6 -8 -13z"/>
<path d="M1246 1243 c-4 -9 -2 -21 4 -27 8 -8 9 -6 4 8 -5 13 -4 17 4 12 8 -5
10 -2 6 8 -8 20 -10 20 -18 -1z"/>
<path d="M5771 1248 c-1 -20 14 -24 25 -6 4 6 3 8 -4 4 -5 -3 -13 0 -15 6 -3
8 -6 6 -6 -4z"/>
<path d="M1160 1220 c-8 -5 -10 -10 -5 -10 6 0 17 5 25 10 8 5 11 10 5 10 -5
0 -17 -5 -25 -10z"/>
<path d="M1275 1220 c-3 -6 1 -7 10 -4 9 4 15 3 13 -2 -2 -5 0 -10 5 -11 16
-6 19 -2 7 12 -14 17 -26 19 -35 5z"/>
<path d="M1216 1179 c4 -8 30 -6 38 2 3 3 -5 5 -19 5 -13 0 -22 -3 -19 -7z"/>
<path d="M5695 1179 c-4 -6 -5 -12 -2 -15 2 -3 7 2 10 11 7 17 1 20 -8 4z"/>
<path d="M5770 1180 c0 -5 5 -10 11 -10 5 0 7 5 4 10 -3 6 -8 10 -11 10 -2 0
-4 -4 -4 -10z"/>
<path d="M1190 1141 c0 -6 4 -13 10 -16 6 -3 7 1 4 9 -7 18 -14 21 -14 7z"/>
<path d="M1357 1135 c-4 -8 -3 -16 1 -19 4 -3 9 4 9 15 2 23 -3 25 -10 4z"/>
<path d="M5633 1113 c0 -11 7 -20 14 -20 10 0 10 4 1 16 -7 9 -13 18 -15 20
-1 2 -1 -5 0 -16z"/>
<path d="M5673 1115 c0 -8 4 -12 9 -9 5 3 6 10 3 15 -9 13 -12 11 -12 -6z"/>
<path d="M5596 1111 c-3 -5 1 -11 9 -14 9 -4 12 -1 8 9 -6 16 -10 17 -17 5z"/>
<path d="M1401 1084 c0 -11 3 -14 6 -6 3 7 2 16 -1 19 -3 4 -6 -2 -5 -13z"/>
<path d="M1340 1086 c0 -2 8 -10 18 -17 15 -13 16 -12 3 4 -13 16 -21 21 -21
13z"/>
<path d="M5580 1079 c0 -5 5 -7 10 -4 6 3 10 8 10 11 0 2 -4 4 -10 4 -5 0 -10
-5 -10 -11z"/>
<path d="M1406 1038 c3 -5 10 -6 15 -3 13 9 11 12 -6 12 -8 0 -12 -4 -9 -9z"/>
<path d="M5365 1041 c-3 -5 -2 -12 3 -15 5 -3 9 1 9 9 0 17 -3 19 -12 6z"/>
<path d="M5493 1038 c-26 -12 -27 -17 -12 -38 8 -13 9 -13 7 2 -2 9 6 24 17
32 23 18 19 19 -12 4z"/>
<path d="M5610 1039 c0 -5 5 -7 10 -4 6 3 10 8 10 11 0 2 -4 4 -10 4 -5 0 -10
-5 -10 -11z"/>
<path d="M5551 1027 c-8 -10 -7 -14 2 -14 8 0 14 6 14 14 0 7 -1 13 -2 13 -2
0 -8 -6 -14 -13z"/>
<path d="M1499 1028 c0 -2 -2 -16 -4 -33 -3 -24 -2 -27 6 -12 6 9 7 22 4 27
-8 13 1 13 28 -1 21 -10 21 -10 3 5 -18 14 -35 20 -37 14z"/>
<path d="M5315 1011 c-11 -5 -21 -13 -21 -20 -1 -6 -2 -16 -3 -22 0 -5 -6 -7
-11 -4 -6 4 -17 1 -25 -5 -8 -6 -20 -8 -27 -4 -7 4 -10 4 -6 -1 4 -4 2 -15 -5
-24 -10 -13 -7 -12 16 2 15 10 27 15 27 12 0 -3 10 0 23 7 12 7 25 11 30 10 4
-1 6 1 5 6 -1 4 3 17 10 30 7 12 11 22 10 21 -2 0 -12 -4 -23 -8z"/>
<path d="M5513 1006 c3 -7 1 -19 -4 -25 -6 -8 -5 -8 3 -1 15 13 19 40 6 40 -6
0 -8 -6 -5 -14z"/>
<path d="M1439 993 c-13 -16 -12 -17 4 -4 16 13 21 21 13 21 -2 0 -10 -8 -17
-17z"/>
<path d="M5587 999 c7 -7 15 -10 18 -7 3 3 -2 9 -12 12 -14 6 -15 5 -6 -5z"/>
<path d="M5454 979 c-3 -6 -3 -13 0 -16 3 -4 6 -1 6 5 0 6 7 9 15 6 8 -4 15
-4 15 -1 0 11 -30 16 -36 6z"/>
<path d="M1435 960 c-3 -5 -1 -10 4 -10 6 0 11 5 11 10 0 6 -2 10 -4 10 -3 0
-8 -4 -11 -10z"/>
<path d="M1570 955 c0 -8 2 -15 4 -15 2 0 6 7 10 15 3 8 1 15 -4 15 -6 0 -10
-7 -10 -15z"/>
<path d="M1495 940 c-2 -3 5 -6 15 -7 11 -1 22 2 24 5 3 4 -4 8 -15 8 -11 0
-22 -3 -24 -6z"/>
<path d="M5470 936 c7 -7 13 -7 20 0 6 6 3 10 -10 10 -13 0 -16 -4 -10 -10z"/>
<path d="M1616 923 c-6 -14 -5 -15 5 -6 7 7 10 15 7 18 -3 3 -9 -2 -12 -12z"/>
<path d="M5415 919 c-3 -4 2 -6 10 -5 21 3 28 13 10 13 -9 0 -18 -4 -20 -8z"/>
<path d="M1535 900 c3 -5 8 -10 11 -10 2 0 4 5 4 10 0 6 -5 10 -11 10 -5 0 -7
-4 -4 -10z"/>
<path d="M5140 891 c-13 -11 -27 -18 -31 -15 -4 2 -6 -4 -5 -14 0 -9 -4 -16
-10 -15 -6 1 -11 -4 -11 -11 0 -18 62 -13 63 5 1 8 3 17 4 22 1 4 3 10 4 15 1
4 5 13 9 20 11 16 6 15 -23 -7z m10 -15 c0 -2 -7 -7 -16 -10 -8 -3 -12 -2 -9
4 6 10 25 14 25 6z"/>
<path d="M5415 880 c2 -27 10 -33 12 -10 1 11 -2 22 -6 24 -4 3 -7 -4 -6 -14z"/>
<path d="M1695 880 c-3 -5 -1 -10 4 -10 6 0 11 5 11 10 0 6 -2 10 -4 10 -3 0
-8 -4 -11 -10z"/>
<path d="M5475 880 c3 -5 8 -10 11 -10 2 0 4 5 4 10 0 6 -5 10 -11 10 -5 0 -7
-4 -4 -10z"/>
<path d="M5348 863 c6 -2 9 -10 6 -15 -4 -7 -2 -8 5 -4 13 9 5 26 -12 25 -9 0
-8 -2 1 -6z"/>
<path d="M1670 851 c0 -6 4 -12 8 -15 5 -3 9 1 9 9 0 8 -4 15 -9 15 -4 0 -8
-4 -8 -9z"/>
<path d="M5193 825 c0 -14 3 -27 7 -30 4 -3 8 7 8 20 0 14 -4 27 -8 30 -4 3
-7 -7 -7 -20z"/>
<path d="M5265 839 c-11 -16 -1 -19 13 -3 7 8 8 14 3 14 -5 0 -13 -5 -16 -11z"/>
<path d="M1715 820 c-3 -6 1 -7 9 -4 18 7 21 14 7 14 -6 0 -13 -4 -16 -10z"/>
<path d="M5232 821 c-11 -7 -11 -9 0 -14 9 -3 15 1 15 9 0 8 -1 14 -1 14 -1 0
-7 -4 -14 -9z"/>
<path d="M1725 800 c-3 -6 1 -7 9 -4 18 7 21 14 7 14 -6 0 -13 -4 -16 -10z"/>
<path d="M1760 806 c0 -2 7 -7 16 -10 8 -3 12 -2 9 4 -6 10 -25 14 -25 6z"/>
<path d="M5016 794 c-3 -8 -10 -12 -16 -9 -5 3 -10 1 -10 -5 0 -6 -4 -9 -9 -5
-5 3 -12 1 -16 -5 -4 -6 -12 -7 -18 -4 -7 4 -6 1 2 -7 11 -11 14 -11 18 -1 4
9 9 10 18 2 9 -8 14 -6 19 5 3 9 9 14 14 11 4 -2 9 4 9 15 2 23 -3 25 -11 3z"/>
<path d="M5295 791 c-3 -5 -2 -12 3 -15 5 -3 9 1 9 9 0 17 -3 19 -12 6z"/>
<path d="M1750 782 c0 -5 7 -9 15 -9 8 0 12 4 9 9 -3 4 -9 8 -15 8 -5 0 -9 -4
-9 -8z"/>
<path d="M5136 765 c-3 -8 -1 -15 4 -15 6 0 10 7 10 15 0 8 -2 15 -4 15 -2 0
-6 -7 -10 -15z"/>
<path d="M1820 760 c-9 -6 -10 -10 -3 -10 6 0 15 5 18 10 8 12 4 12 -15 0z"/>
<path d="M5110 751 c0 -10 19 -25 25 -20 1 2 -3 10 -11 17 -8 7 -14 8 -14 3z"/>
<path d="M5160 740 c-9 -6 -10 -10 -3 -10 6 0 15 5 18 10 8 12 4 12 -15 0z"/>
<path d="M1870 725 c0 -8 2 -15 4 -15 2 0 6 7 10 15 3 8 1 15 -4 15 -6 0 -10
-7 -10 -15z"/>
<path d="M4880 720 c-6 -11 -8 -20 -6 -20 3 0 10 9 16 20 6 11 8 20 6 20 -3 0
-10 -9 -16 -20z"/>
<path d="M4812 701 c-21 -22 -32 -27 -40 -19 -9 9 -17 7 -32 -7 -24 -22 -8
-40 22 -24 10 5 18 6 18 2 0 -4 7 3 16 15 13 20 18 21 32 10 15 -11 15 -11 4
4 -14 17 -1 35 18 23 6 -3 7 1 4 9 -8 21 -8 21 -42 -13z m-42 -25 c0 -2 -8
-10 -17 -17 -16 -13 -17 -12 -4 4 13 16 21 21 21 13z"/>
<path d="M5091 727 c2 -1 13 -9 24 -17 19 -14 19 -14 6 3 -7 9 -18 17 -24 17
-6 0 -8 -1 -6 -3z"/>
<path d="M1917 713 c-4 -6 0 -13 8 -17 8 -3 17 0 21 6 4 6 3 8 -4 4 -5 -3 -12
-1 -14 6 -3 8 -6 9 -11 1z"/>
<path d="M1835 700 c3 -5 8 -10 11 -10 2 0 4 5 4 10 0 6 -5 10 -11 10 -5 0 -7
-4 -4 -10z"/>
<path d="M5147 699 c7 -7 15 -10 18 -7 3 3 -2 9 -12 12 -14 6 -15 5 -6 -5z"/>
<path d="M1893 685 c0 -7 6 -11 14 -8 7 3 13 6 13 8 0 2 -6 5 -13 8 -8 3 -14
-1 -14 -8z"/>
<path d="M1950 682 c0 -5 7 -9 15 -9 8 0 12 4 9 9 -3 4 -9 8 -15 8 -5 0 -9 -4
-9 -8z"/>
<path d="M5097 675 c-4 -8 -3 -16 1 -19 4 -3 9 4 9 15 2 23 -3 25 -10 4z"/>
<path d="M1930 661 c0 -6 4 -13 10 -16 6 -3 7 1 4 9 -7 18 -14 21 -14 7z"/>
<path d="M4670 639 c0 -5 5 -7 10 -4 6 3 10 8 10 11 0 2 -4 4 -10 4 -5 0 -10
-5 -10 -11z"/>
<path d="M2073 625 c0 -8 4 -15 9 -15 4 0 8 4 8 9 0 6 -4 12 -8 15 -5 3 -9 -1
-9 -9z"/>
<path d="M4989 623 c-13 -16 -12 -17 4 -4 9 7 17 15 17 17 0 8 -8 3 -21 -13z"/>
<path d="M5055 631 c-3 -5 -2 -12 3 -15 5 -3 9 1 9 9 0 17 -3 19 -12 6z"/>
<path d="M1930 619 c0 -5 5 -7 10 -4 6 3 10 8 10 11 0 2 -4 4 -10 4 -5 0 -10
-5 -10 -11z"/>
<path d="M2000 620 c-9 -6 -10 -10 -3 -10 6 0 15 5 18 10 8 12 4 12 -15 0z"/>
<path d="M4957 613 c-10 -9 -9 -23 1 -23 5 0 9 7 9 15 0 17 -1 18 -10 8z"/>
<path d="M2034 602 c4 -3 14 -7 22 -8 9 -1 13 0 10 4 -4 3 -14 7 -22 8 -9 1
-13 0 -10 -4z"/>
<path d="M2096 602 c-3 -5 1 -9 9 -9 8 0 15 4 15 9 0 4 -4 8 -9 8 -6 0 -12 -4
-15 -8z"/>
<path d="M4580 601 c0 -5 7 -11 14 -14 10 -4 13 -1 9 9 -6 15 -23 19 -23 5z"/>
<path d="M4640 600 c-9 -6 -10 -10 -3 -10 6 0 15 5 18 10 8 12 4 12 -15 0z"/>
<path d="M4870 590 c-9 -6 -10 -10 -3 -10 6 0 15 5 18 10 8 12 4 12 -15 0z"/>
<path d="M2090 576 c0 -2 8 -10 18 -17 15 -13 16 -12 3 4 -13 16 -21 21 -21
13z"/>
<path d="M4895 569 c-4 -6 -5 -12 -2 -15 2 -3 7 2 10 11 7 17 1 20 -8 4z"/>
<path d="M2130 562 c0 -5 7 -9 15 -9 8 0 12 4 9 9 -3 4 -9 8 -15 8 -5 0 -9 -4
-9 -8z"/>
<path d="M2521 556 c-6 -7 -8 -16 -5 -19 7 -6 54 13 54 22 0 12 -39 10 -49 -3z"/>
<path d="M4853 553 c0 -9 4 -10 14 -2 7 6 13 12 13 14 0 1 -6 2 -13 2 -8 0
-14 -6 -14 -14z"/>
<path d="M2230 549 c0 -5 5 -7 10 -4 6 3 10 8 10 11 0 2 -4 4 -10 4 -5 0 -10
-5 -10 -11z"/>
<path d="M4371 530 c-13 -11 -18 -20 -13 -20 6 0 14 4 17 10 7 11 33 9 53 -3
6 -5 12 -4 12 2 0 9 -32 32 -42 31 -2 -1 -14 -10 -27 -20z"/>
<path d="M4753 532 c2 -12 6 -24 10 -28 3 -4 4 4 2 16 -6 30 -16 40 -12 12z"/>
<path d="M2190 537 c0 -2 6 -10 14 -16 11 -9 16 -9 22 1 4 7 4 10 -1 6 -4 -4
-14 -3 -22 3 -7 6 -13 9 -13 6z"/>
<path d="M2300 525 c0 -8 4 -15 10 -15 5 0 7 7 4 15 -4 8 -8 15 -10 15 -2 0
-4 -7 -4 -15z"/>
<path d="M2585 530 c-11 -17 5 -30 32 -26 30 6 39 13 29 23 -4 4 -11 2 -15 -6
-7 -10 -10 -9 -14 3 -7 18 -23 21 -32 6z"/>
<path d="M4809 523 c-13 -16 -12 -17 4 -4 9 7 17 15 17 17 0 8 -8 3 -21 -13z"/>
<path d="M4670 514 c0 -7 4 -16 10 -19 6 -4 7 1 3 11 -4 10 -2 15 3 11 6 -3
16 -2 23 2 9 6 4 9 -13 9 -15 0 -26 -6 -26 -14z"/>
<path d="M2230 506 c0 -2 7 -7 16 -10 8 -3 12 -2 9 4 -6 10 -25 14 -25 6z"/>
<path d="M2392 505 c4 -4 0 -14 -10 -21 -15 -12 -15 -12 6 -7 24 6 29 18 10
29 -7 4 -10 4 -6 -1z"/>
<path d="M2329 483 c-13 -16 -12 -17 4 -4 16 13 21 21 13 21 -2 0 -10 -8 -17
-17z"/>
<path d="M2787 476 c-14 -21 -13 -22 8 -22 13 0 21 4 19 8 -3 4 0 8 5 8 16 0
13 17 -3 23 -8 3 -21 -4 -29 -17z"/>
<path d="M4283 493 c-18 -7 -16 -20 2 -20 8 0 12 4 9 9 -3 4 -1 8 5 8 5 0 11
-6 14 -12 2 -7 8 -9 13 -5 5 4 2 12 -6 17 -16 11 -19 11 -37 3z"/>
<path d="M4730 496 c0 -2 8 -10 18 -17 15 -13 16 -12 3 4 -13 16 -21 21 -21
13z"/>
<path d="M2199 473 c-13 -16 -12 -17 4 -4 16 13 21 21 13 21 -2 0 -10 -8 -17
-17z"/>
<path d="M4150 483 c0 -5 -12 -15 -27 -22 -19 -9 -23 -15 -15 -23 8 -8 16 -6
29 8 10 11 15 15 11 10 -13 -16 -9 -26 6 -20 8 3 13 15 11 26 -5 23 -15 37
-15 21z"/>
<path d="M4625 480 c-2 -3 7 -6 21 -6 13 0 24 3 24 7 0 9 -40 8 -45 -1z"/>
<path d="M2415 463 c3 -3 0 -11 -5 -18 -7 -8 -5 -12 4 -12 14 0 16 22 3 32 -4
3 -5 2 -2 -2z"/>
<path d="M2950 455 c-9 -11 -17 -12 -32 -4 -13 7 -23 7 -32 0 -7 -6 -17 -7
-21 -3 -5 4 -5 1 -1 -6 4 -7 11 -10 16 -7 5 3 11 1 15 -5 4 -6 12 -7 18 -3 21
13 39 12 33 -2 -3 -8 2 -12 12 -10 9 1 22 -1 28 -6 7 -6 10 -1 9 14 -1 13 -8
22 -18 21 -9 -1 -13 4 -10 12 7 18 -1 18 -17 -1z"/>
<path d="M4535 445 c0 -13 3 -21 8 -18 4 2 7 10 7 18 0 8 -3 16 -7 18 -5 3 -8
-5 -8 -18z"/>
<path d="M4690 459 c0 -5 5 -7 10 -4 6 3 10 8 10 11 0 2 -4 4 -10 4 -5 0 -10
-5 -10 -11z"/>
<path d="M3959 441 c8 -14 8 -21 -2 -24 -7 -4 -6 -6 4 -6 9 -1 22 6 29 14 7 8
17 12 24 8 8 -4 8 -3 0 6 -6 6 -23 14 -38 17 -24 4 -26 3 -17 -15z"/>
<path d="M2617 435 c-6 -15 10 -32 20 -21 4 3 1 6 -5 6 -6 0 -9 7 -6 15 4 8 4
15 1 15 -3 0 -7 -7 -10 -15z"/>
<path d="M3105 424 c-10 -8 -15 -14 -11 -14 5 0 3 -6 -3 -13 -6 -8 -8 -17 -5
-20 8 -7 44 15 44 27 0 4 -8 2 -17 -5 -17 -13 -17 -12 -4 4 15 18 15 18 28 0
15 -20 30 -23 53 -12 8 4 24 2 35 -4 23 -13 65 -17 65 -7 0 4 -7 13 -15 20
-11 9 -18 10 -29 1 -10 -9 -19 -7 -37 8 -20 16 -25 17 -34 4 -9 -12 -13 -11
-31 5 -18 17 -23 18 -39 6z m159 -32 c3 -5 -1 -9 -9 -9 -8 0 -12 4 -9 9 3 4 7
8 9 8 2 0 6 -4 9 -8z"/>
<path d="M4409 428 c12 -16 11 -18 -2 -18 -9 0 -18 -4 -21 -9 -4 -5 3 -7 14
-4 29 8 33 19 12 34 -15 13 -16 12 -3 -3z"/>
<path d="M2516 415 c-3 -9 -11 -13 -17 -9 -8 5 -9 3 -4 -5 6 -10 11 -9 23 3 9
8 13 18 10 21 -3 3 -8 -1 -12 -10z"/>
<path d="M4660 420 c8 -5 20 -10 25 -10 6 0 3 5 -5 10 -8 5 -19 10 -25 10 -5
0 -3 -5 5 -10z"/>
<path d="M2454 400 c0 -13 4 -16 10 -10 7 7 7 13 0 20 -6 6 -10 3 -10 -10z"/>
<path d="M2577 404 c2 -7 11 -10 19 -7 19 7 18 10 -5 16 -13 3 -18 1 -14 -9z"/>
<path d="M4330 400 c0 -11 2 -20 4 -20 2 0 6 9 9 20 3 11 1 20 -4 20 -5 0 -9
-9 -9 -20z"/>
<path d="M4589 403 c-13 -16 -12 -17 4 -4 16 13 21 21 13 21 -2 0 -10 -8 -17
-17z"/>
<path d="M2535 401 c-3 -5 -2 -12 3 -15 5 -3 9 1 9 9 0 17 -3 19 -12 6z"/>
<path d="M3310 395 c-7 -9 -11 -17 -9 -20 3 -2 10 5 17 15 14 24 10 26 -8 5z"/>
<path d="M3350 399 c0 -5 5 -7 10 -4 6 3 10 8 10 11 0 2 -4 4 -10 4 -5 0 -10
-5 -10 -11z"/>
<path d="M3550 400 c0 -5 7 -10 15 -10 8 0 15 5 15 10 0 6 -7 10 -15 10 -8 0
-15 -4 -15 -10z"/>
<path d="M3750 401 c0 -5 -9 -8 -19 -6 -11 2 -25 -2 -31 -10 -9 -10 -8 -13 4
-11 9 1 19 5 22 9 4 4 14 1 22 -6 11 -8 14 -8 9 0 -4 6 -2 13 5 15 9 3 9 6 0
12 -7 4 -12 3 -12 -3z"/>
<path d="M3910 400 c0 -5 5 -10 10 -10 6 0 10 5 10 10 0 6 -4 10 -10 10 -5 0
-10 -4 -10 -10z"/>
<path d="M4437 395 c-4 -8 -3 -16 1 -19 4 -3 9 4 9 15 2 23 -3 25 -10 4z"/>
<path d="M2635 391 c-6 -11 13 -26 22 -17 4 3 1 6 -6 6 -7 0 -9 5 -6 10 3 6 4
10 1 10 -3 0 -7 -4 -11 -9z"/>
<path d="M4144 388 c-4 -6 -2 -14 4 -16 7 -2 10 -8 6 -13 -3 -5 0 -9 5 -9 14
0 14 13 -1 28 -19 19 1 14 35 -9 l32 -21 -28 26 c-31 29 -42 32 -53 14z"/>
<path d="M2767 376 c5 -14 3 -17 -7 -11 -9 5 -11 4 -6 -4 4 -6 11 -9 16 -6 4
3 11 -1 13 -7 3 -7 6 -8 6 -2 1 5 -6 19 -14 30 -15 18 -15 18 -8 0z"/>
<path d="M4294 382 c3 -5 0 -13 -6 -15 -9 -4 -10 -6 -1 -6 17 -1 25 16 12 25
-7 4 -9 3 -5 -4z"/>
<path d="M4396 382 c-3 -5 1 -9 9 -9 8 0 12 4 9 9 -3 4 -7 8 -9 8 -2 0 -6 -4
-9 -8z"/>
<path d="M2905 371 c-7 -12 12 -24 25 -16 11 7 4 25 -10 25 -5 0 -11 -4 -15
-9z"/>
<path d="M2576 358 c3 -5 10 -6 15 -3 13 9 11 12 -6 12 -8 0 -12 -4 -9 -9z"/>
<path d="M4315 360 c-3 -5 -1 -10 4 -10 6 0 11 5 11 10 0 6 -2 10 -4 10 -3 0
-8 -4 -11 -10z"/>
<path d="M2841 353 c-1 -17 16 -25 25 -12 4 7 3 9 -4 5 -5 -3 -13 0 -15 6 -4
9 -6 10 -6 1z"/>
<path d="M2943 348 c-5 -7 -10 -24 -11 -38 -1 -18 1 -21 8 -11 4 8 6 21 2 29
-3 9 -1 13 5 9 5 -3 10 0 10 8 0 18 -2 18 -14 3z"/>
<path d="M2708 339 c7 -9 10 -25 6 -35 -5 -18 -5 -18 6 0 10 15 9 21 -6 35
-16 14 -17 14 -6 0z"/>
<path d="M2819 348 c-8 -27 -5 -36 9 -30 10 4 12 7 4 10 -7 2 -10 8 -6 13 3 5
3 9 0 9 -3 0 -6 -1 -7 -2z"/>
<path d="M2879 333 c-11 -15 -11 -16 1 -6 11 10 16 9 27 -5 13 -15 13 -15 3 6
-13 27 -14 27 -31 5z"/>
<path d="M3937 336 c-4 -10 -1 -13 8 -9 8 3 12 9 9 14 -7 12 -11 11 -17 -5z"/>
<path d="M4096 342 c-2 -4 0 -14 6 -22 8 -12 9 -12 4 3 -4 12 0 17 16 17 18 0
19 -2 7 -17 -13 -16 -12 -17 3 -4 10 7 15 17 12 22 -7 11 -41 12 -48 1z"/>
<path d="M4188 343 c6 -2 9 -10 6 -15 -4 -7 -2 -8 5 -4 13 9 5 26 -12 25 -9 0
-8 -2 1 -6z"/>
<path d="M4317 333 c-10 -9 -9 -23 1 -23 5 0 9 7 9 15 0 17 -1 18 -10 8z"/>
<path d="M2656 318 c3 -5 10 -6 15 -3 13 9 11 12 -6 12 -8 0 -12 -4 -9 -9z"/>
<path d="M2746 318 c3 -5 10 -6 15 -3 13 9 11 12 -6 12 -8 0 -12 -4 -9 -9z"/>
<path d="M3080 310 c9 -17 30 -20 30 -4 0 3 -4 2 -10 -1 -5 -3 -10 1 -10 9 0
9 -5 16 -10 16 -7 0 -7 -7 0 -20z"/>
<path d="M4024 314 c-18 -15 -18 -15 2 -5 12 6 25 7 29 3 5 -4 5 -1 1 6 -9 15
-8 15 -32 -4z"/>
<path d="M3275 309 c-4 -6 -5 -12 -2 -15 2 -3 7 2 10 11 7 17 1 20 -8 4z"/>
<path d="M3901 316 c2 -2 15 -9 29 -15 24 -11 24 -11 6 3 -16 13 -49 24 -35
12z"/>
<path d="M3950 316 c0 -2 9 -6 20 -9 11 -3 18 -1 14 4 -5 9 -34 13 -34 5z"/>
<path d="M4070 316 c0 -2 8 -10 18 -17 15 -13 16 -12 3 4 -13 16 -21 21 -21
13z"/>
<path d="M2840 300 c-9 -6 -10 -10 -3 -10 6 0 15 5 18 10 8 12 4 12 -15 0z"/>
<path d="M3794 303 c4 -8 2 -13 -6 -13 -9 0 -10 -3 -2 -8 6 -4 10 -15 8 -24
-1 -10 1 -20 5 -22 10 -7 7 61 -3 71 -5 4 -6 3 -2 -4z"/>
<path d="M4250 300 c0 -5 5 -10 11 -10 5 0 7 5 4 10 -3 6 -8 10 -11 10 -2 0
-4 -4 -4 -10z"/>
<path d="M3290 286 c0 -8 4 -17 9 -20 5 -4 7 3 4 14 -6 23 -13 26 -13 6z"/>
<path d="M3350 289 c0 -5 -4 -7 -10 -4 -6 4 -7 -1 -3 -11 4 -11 8 -13 11 -6 2
7 8 10 13 7 5 -4 6 1 3 9 -7 18 -14 21 -14 5z"/>
<path d="M3401 291 c-7 -5 -9 -11 -5 -14 5 -3 15 1 22 9 14 16 5 18 -17 5z"/>
<path d="M3431 273 c-10 -26 -10 -27 4 -9 8 11 15 23 15 28 0 15 -7 8 -19 -19z"/>
<path d="M3556 285 c-3 -8 -1 -15 4 -15 6 0 10 7 10 15 0 8 -2 15 -4 15 -2 0
-6 -7 -10 -15z"/>
<path d="M3070 281 c0 -6 4 -13 10 -16 6 -3 7 1 4 9 -7 18 -14 21 -14 7z"/>
<path d="M3116 281 c9 -9 34 -9 34 -1 0 5 -9 8 -20 7 -10 -1 -17 -3 -14 -6z"/>
<path d="M3236 282 c-3 -5 1 -9 9 -9 8 0 15 4 15 9 0 4 -4 8 -9 8 -6 0 -12 -4
-15 -8z"/>
<path d="M3474 278 c-4 -6 -3 -8 4 -4 5 3 13 0 15 -6 3 -8 6 -6 6 5 1 19 -14
23 -25 5z"/>
<path d="M3605 280 c3 -5 8 -10 11 -10 2 0 4 5 4 10 0 6 -5 10 -11 10 -5 0 -7
-4 -4 -10z"/>
<path d="M3655 280 c-3 -6 1 -7 9 -4 18 7 21 14 7 14 -6 0 -13 -4 -16 -10z"/>
<path d="M3704 275 c-18 -15 -18 -15 0 -8 12 4 17 3 13 -4 -3 -5 0 -10 8 -10
11 0 12 4 4 13 -7 8 -6 14 3 17 7 3 8 6 2 6 -5 1 -19 -6 -30 -14z"/>
<path d="M3856 282 c-3 -5 1 -9 9 -9 8 0 12 4 9 9 -3 4 -7 8 -9 8 -2 0 -6 -4
-9 -8z"/>
<path d="M3985 280 c-3 -6 1 -7 9 -4 18 7 21 14 7 14 -6 0 -13 -4 -16 -10z"/>
<path d="M3190 276 c0 -2 8 -10 18 -17 15 -13 16 -12 3 4 -13 16 -21 21 -21
13z"/>
<path d="M3627 267 c-3 -8 1 -14 8 -14 7 0 11 6 8 14 -6 16 -10 16 -16 0z"/>
<path d="M3953 265 c0 -8 4 -12 9 -9 5 3 6 10 3 15 -9 13 -12 11 -12 -6z"/>
<path d="M3576 261 c-3 -5 2 -15 12 -22 15 -12 16 -12 5 2 -7 9 -10 19 -6 22
3 4 4 7 0 7 -3 0 -8 -4 -11 -9z"/>
<path d="M3760 260 c-9 -6 -10 -10 -3 -10 6 0 15 5 18 10 8 12 4 12 -15 0z"/>
<path d="M4010 259 c0 -5 5 -7 10 -4 6 3 10 8 10 11 0 2 -4 4 -10 4 -5 0 -10
-5 -10 -11z"/>
<path d="M3135 251 c-3 -5 -2 -12 3 -15 5 -3 9 1 9 9 0 17 -3 19 -12 6z"/>
<path d="M3176 247 c3 -10 9 -15 12 -12 3 3 0 11 -7 18 -10 9 -11 8 -5 -6z"/>
<path d="M3262 245 c15 -16 20 -17 30 -6 11 11 10 13 0 7 -7 -4 -21 -2 -30 5
-15 12 -15 11 0 -6z"/>
<path d="M3535 250 c-4 -6 -10 -8 -14 -6 -4 3 -8 -1 -8 -9 0 -13 4 -12 19 2
18 16 22 23 14 23 -3 0 -8 -5 -11 -10z"/>
<path d="M3055 240 c3 -5 8 -10 11 -10 2 0 4 5 4 10 0 6 -5 10 -11 10 -5 0 -7
-4 -4 -10z"/>
<path d="M3310 240 c0 -5 9 -8 20 -7 21 1 18 10 -5 13 -8 1 -15 -2 -15 -6z"/>
<path d="M3215 231 c-3 -5 -2 -12 3 -15 5 -3 9 1 9 9 0 17 -3 19 -12 6z"/>
<path d="M3876 227 c3 -10 9 -15 12 -12 3 3 0 11 -7 18 -10 9 -11 8 -5 -6z"/>
<path d="M2995 209 c-4 -6 -5 -12 -2 -15 2 -3 7 2 10 11 7 17 1 20 -8 4z"/>
<path d="M3755 211 c-3 -5 -2 -12 3 -15 5 -3 9 1 9 9 0 17 -3 19 -12 6z"/>
</g>
</svg>
